<svg id="Vrstva_1" data-name="Vrstva 1" xmlns="http://www.w3.org/2000/svg" viewBox="0 0 1001.9999 516"><defs><style>.cls-1{fill:#fff;stroke:#20519d;stroke-linecap:round;stroke-linejoin:round;stroke-width:4px;}</style></defs><title>osterreich3</title><path id="AUT2320" class="cls-1" d="M87.5,343l2.2,5.5,1.6,8.7.1,1.9-.3,5.3-1.9,4.8-5.1,7.7-1.4,3.6-1.5,7.7-.2,3,.1,2.3.4,2.7.1,2.1-.4,3.3-.8,2.4L79,406l-1.6,1.4-1.7,2.1-.4,1.7.3,1.8,2.9,4.9,2.4,6.3.1.6-1.8-.1-5.6-1.8-3-1.7-5-4.9-14-4.5-3.3-2.5-1.6-2.4-.3-1.8.5-2,.3-4.5.5-1.9v-1.1l-.5-.6-.8.1-.5-.5.2-2.2-24.7-7.8-2.2-.3-6.9.8-2.4-.6,3.6-4.6.9-5L13,370l-3.1-4.4L6,363.3v-1.7l1.3-2.9.2-1.3-1.2-2.7L5.1,353l-.6-1.7.9-2.7-2.2-2L2,344.8l4.2-7.1,4.5-5.4.5-1.4.6-3.4.7-1.7,5-6.4,1.3-3,.1-8.2-3.7-3.3-4.9-2.2-3.9-5.9,3.1,1.8,1.9.5h2l.9-.5,1.6-1.7,1-.3.8.3.2,1.7.8.5,2.7.1.9-.1.7-.8.7-2.5.4-.7,1.6-.4,5.5.4-1.6-3.6-1.8-1.6,1.6-3.5,2.9-3.4,1.9-1,1.9-.2,1.9.7,1.5,1.6.5,2.3-.3,2.4.5,2,2.7,1.4,1-.1,1.6-1,.7-.2,3.9,1.5,3.9.3,2-.4,1.6-1.3.3,3.2,1.4,1.9,1.6,1.6,1.2,2.6.3,2.3,1.4.9L65,303l1.1-1,1.5-.7,6.5,9.4,1.1,2.3-.6,2-3,2.4,1.5,1.6.3,2.1.1,2,.7,1.9,1.3,1.2h.9l1-.8,1.7-.8.6.1,1.4.8,1.2-.4,1.6-1.7,5.7-1.1,2.4,1.3-.1,3.5-2.3,7.2.3,2.4-.3,1.3-.6.6-1.7.5-.6.4L85,342.9l.6.3,1.9-.2Z"/><path id="AUT2323" class="cls-1" d="M869.1,310l-7.6,7.9-2.4,1.4-.8-2.2-.8-1-1.5.1-1.4,1.4-2,2.8-.4,1.6.2,1.6,2.3,5.6,1.4,4.8,1.3,5.3,1,7.4.2,3,3.6,13.9v5.2l-1.4,6,.1,2,.6,2.7,1.1,2.1,4.8,6.1.3,1.6-.1,1.3-1,2-3.4,5.1-6.3,8.4-4.7,4.1-1,1.8-.4,1.8-.1,2-.6,3.2.1,1.2.7.9,1.6,1.3.7,1.3.3,2.9-5.4,1.4-.8.4-1.2,1.4.7.8.1,1.4-.9,5.9-.2,3.4.1,3.3,1.5,4.7,2.8,1.8,1.4,2.9.3,4.4-2.4-3.1-1.5-1-5.3-.9-8.8-4.5-3.7-.7-3.6.3-8.9,3.6-3.5.2-10-1.5-2.1-1.3-.4,2.9v2.4l-.8,1.7-1.3,1-1.7.5-2-.6-2.8.1-2.8.7-2,1.5-1.3,2.7-.4,2.2-.8,1.9-2.4,1.9-4,.7-2.9-1.8-3-2.6-3.8-1.5-24,1.3-13-1.4-1.1-1.5-8.2-9.4-1.6-4.6-.3-6.3-1.5-6.8-1.9-4.6-.7-2.6-.2-1.7.9-3.4.8-1.7.8-2.3.3-5.8-10.3-15.8-5.2-6.4-1.9-1.5-1.3-.9-2-.3-14.5,3.4-16.1,1.3-3.6-1.5-8.5.6L653,391l-13.3,4.7-2.4-.1-1.1-.2-.3-.5-1.4-1.1-2.2-1.1-9.3-2.9-5.3-3.8-3.4-1.5-4.6-.1-3.9.7L591.5,392l-2,1.5-1.1,1.4-1.1,2.3-2,3.4-4.9,2.3-8.1,6.3-2.3.7-2.4.3-1.2-.5-1.8-1.3-5-4.2,5-6.5,5.6-10.4,1.5-3.7.7-2.2-.3-3.8.2-2.5,1.1-1.7,3.9-3.7,2.5-3.3.3-1.9-1-1.7-3.9-2.8-4.3-5.5-1.1-1.8-.9-3.7-.7-1.8-2.9-4.5-2.1-4.3-1.8-1.2-1.9.6-2,1.3-3.7.4-2.1,1-1.9,1.4-1.8.7-1.9-.6-2.3-1.6-4.1-3.9-3.4-7.1-3.9-13-1.2-6.9.1-1.5,1-3.6,1-2.8,12.1,2.3,1.3-.6,1.6-.4.4-.7,3.3-2.9.9-1.5.5-2v-2.6l-.6-3.2-1.3-2.6-1-1.6-1.6-1.9-1.5-1.9-1-2-.5-2-.1-1.9.3-3.8.3-2.4.7-2.8,1.7-2.2,2.2-1.8,13.9-7,1.5-.3,1.1.2,3.2,1.9,1.8.8,3.9.7,3.5,1.3,2,.5,5.7-.8,6,7,1.4,3.7.2,1.5.7,1.9.8-.1,2.6-1.9,6.4-1.7,4.9-2.3,1.7-.4,1.3.2,7.3,5.2,2.9,1.3,2.6.8,3.9-.1,3.2-.9,5.9-4.5,3.2-2,4.2-1.2,2.2-1.2,1.5-1.4.4-1.3,1.5-2,18.8-7.6,8.4-6.7,4.5,3.6h13.6l.8.4,1.2,1.3,3.9,3.3,2.8.4,3.3-.8,3.2-2,5.3-2.3,2.6-.7,2-.1,2.2.4h1.2l4.1-1.2,6.6-2.6,5.1-1.1,1.4-.9,1.2-1.4.8-1.5,3.6-4.6,5.4.8h.9l8-2,2.6.2,2.1.9,5.5,5.1,10.8,5.3,5.1,3.7,8.8.7,2.7,2.9,1.6,2.2,1.8,1.3,2.5,1.3,1.5.3,2.4-.2,1.7.3.9.9.6,1.4.8,5.6.4,2.2,1,2.6,1.3.9,1.4-.1,4.4-2.5,1.7-.3,1,.6.6.8.8,1.5.5,1.7-.2,2.7-.7,2.7.3,1.3,1.9.7h3.1l3.4,2.6,1.6,3.1,1.6,4.4,10.7,1.8,3.2,1.8,1.2,1.2,1.1.4h.9l1.3-.4,3.1-1.6.6.3.8,1.5.4,1.4.3,2.2.8,2.1,1.4,2.8,4.5,4Z"/><path id="AUT2325" class="cls-1" d="M559.6,404.2l5,4.2,1.8,1.3,1.2.5,2.4-.3,2.3-.7,8.1-6.3,4.9-2.3,2-3.4,1.1-2.3,1.1-1.4,2-1.5,14.3-6.9,3.9-.7,4.6.1,3.4,1.5,5.3,3.8,9.3,2.9,2.2,1.1,1.4,1.1.3.5,1.1.2,2.4.1L653,391l3.6.3,8.5-.6,3.6,1.5,16.1-1.3,14.5-3.4,2,.3,1.3.9,1.9,1.5,5.2,6.4L720,412.4l-.3,5.8-.8,2.3-.8,1.7-.9,3.4.2,1.7.7,2.6,1.9,4.6,1.5,6.8.3,6.3,1.6,4.6,8.2,9.4,1.1,1.5-5.7-.6-7.5,2.4-4.9,7-2.5-3.7-1.9-.3-4.7,2.9-2.7.4L701,471l-1.7.7-2.2,3.2-1.5,3.2-1.9,6-2.5,5.6-.7.6-2.9,1.3-3.3.6-1.2-.8-2.2,1-.8.9-.6,1.3-1.5,1.8-1,2.4-1.7-.4-.6.2-2.6,2.8-1.4.8-1.3.4-2.9.3-1.2.5-2,2.8-1.1,3.7L661,513l-2.3,1-1.7-1.8-1.5-3.3-1.7-2.4-4.6,1-2.1-.3-4.1-1.9-.7-.9-1.1-1.9-1.4-.3-4.4.9-27.7-.8-1.7-.4-7.4-6.4-1.9-1-2.1-.6-2.3-.1-4.4.8-2.2-.2-11.9-5.7-4-.7-8.5,1.4-1.8.1-8.6-2.1-2-.2-2,.4-2-.2-15.8-5.2-5.6-.2-1-.7-1.8-2.1-1-.4-7.9.6-5.8-1-13.3,2.9-5.3-.3-2.7-1.1-8.3-5.1-10.8-2.5L435,470.1l-7.4-4.9-4.4-1.5-1.1.1-2.1.9h-1.2l-1.2-.5-2.4-1.8-1-.5.6-1.5,4.3-8.6,1-2.7.6-2.3.4-3.3,2.8-1.4,11.7-1.8,5.3-2.3,1.5-.2,1.4.5,4.6,3.5,1.1.2.9-.5.4-1.5-.8-1.5-7.8-11-6-6.4-1.4-1.9-.9-3.1-.3-2.5-.6-2.7-1.1-2-1.6-1.8-1.3-.9-2.7-2.5-1.1-2.2-1.3-1.7-.9-1.6-.4-1.9-.1-1.7.6-2.8,1.6-4,.1-2-1.1-1.6-11.2-3.7-1.8-1.4-1-1.5-.4-3.7,1.7-1.1.9-1.1.5-1.7,1-.8,1.2.1,1.7.7,5.1,3.3,6,3,8.1,2,4.2.5,6.3,2,10.4,6.8,2.2,1.2,2.5.6,3.9.5,9.8-.6,5.1-1.1,6.9-3.4,3-2.3,3.3-3.2,2-.5,2.4-.2,5.2,1.6,12,3.2,2.9.2,13.1,2.8,5.8.5,3.4,1.1,4.6,2.4,11.2,8.7,3.9,5.1Z"/><path id="AUT2326" class="cls-1" d="M678.5,86.1l.3.6,2.4,2.3,8.2,1.9,4.3,1.8,4.2,2.2,4.7.7,2.2.8,1.8,1.5,1.3,2.2.2,2-.5,1.2-3-.3-.5.2-.3,1-.1,1.8-.2,1.2v1.7l.6,2,3,4.2,3.2,1.2.7,6.3,2.5,1.9.7,1.8,1.5,9.8-.9,16.9-.1,4.4-2-2.3-1.6-1-1.4-.4-6.5.3-2.4,1.1-1.9,1.9-1.9,2.8-1.8,1.5-18.8,4.5-2.7-.8-2.2-2.1-3.6-5.2-1.7-1.9-2-1.3-2.2-.8-5.9-.2-1.8,1.5-1.7,1.3-.9,1.2-.2,1.2-.8,7.9-.3,1.7-.7,1.6-.2,1.1.6,5.6.7,1.9v.7l-.7,1.2-1.5,1.8-.3.9-.1,1.6-1.9,3.5-1.2.9-1,.3-.2.9,2.4,2.9,21.1,16,6.9,3.4,4.1,1.3,2.8,1.5,2.8,2.2,1.4,1.7.9,1.4-.1,3.7-2.3,3.4-1.8,7.2-.1,4.5-.2,2.4-2.2,4.8-8.4,6.7L652.4,261l-1.5,2-.4,1.3-1.5,1.4-2.2,1.2-4.2,1.2-3.2,2-5.9,4.5-3.2.9-3.9.1-2.6-.8-2.9-1.3-7.3-5.2-1.3-.2-1.7.4-4.9,2.3-6.4,1.7-2.6,1.9-.8.1-.7-1.9-.2-1.5-1.4-3.7-6-7-5.7.8-2-.5-3.5-1.3-3.9-.7-1.8-.8-3.2-1.9-1.1-.2-1.5.3-13.9,7-2.2,1.8-1.7,2.2-.7,2.8-.3,2.4-.3,3.8.1,1.9.5,2,1,2,1.5,1.9,1.6,1.9,1,1.6,1.3,2.6.6,3.2v2.6l-.5,2-.9,1.5-3.3,2.9-.4.7-1.6.4-1.3.6-12.1-2.3-7.5-4.8-4.6-4.8-1.1-2.6-.2-2.9.7-2.6,2-3.4.8-1.5.3-2-.3-1.7-2.2-3.8,4.8-14.8-.7-1.7-.9-1.8-3.3-.4-2.7-1.2-2-1.4-1-2.1.2-.9.9-.7,5.2-.2,2.1-.4,1.6-2.1-3.1-2.8-23.6-5.3-2.1-1.4-1.2-1.6-.5-1.7-1.7-7.2-.4-2.5-.1-2.6.3-5.5.3-2.3.5-1.7.4-.9.7-.6.9-.1,3.6,1,1.9.2,1.8-.5,1.2-1.4.1-1.5-1.1-1.4-2.5-1.5-4-2.9-8.9,4.1-7.5.9-5-.5-5.2-1.8-1.2-.8-3.9-4.1-3.2-1.9-3.3-.4-5.5.3-2.5.7-1.6,1.3-1.3,3.8-1.6,1L440,204l-2.7,1-.3-2.1-2-4.4-9.2-9.6-1.2-2-1.2-2.3-.6-2.6.2-2.7.8-1.4,1.7-.2.8-.4,1.9-2.9.5-.7,5.2-3.6,1.7-2,2.4-3.8,1.2-1.3,2-1,7.2-1.5-.1-.4,2-1.7,4.2-2.3,4.9-4.7,2.1-1.5,13.6-5.4,18-3.2,4.4-2.5,12.8-11.2,1.8-3.1,1-5.2,1.2-2.3.2-2.1-.2-5.6.2-1.8.7-1.8,1.7-3.8.4-1.9-.3-1.7-1.2-1.9-.5-3.6-.5-1.6.7-1.4,1.2-1.1,4.3-1.6,4.3-.6,13.6,3.8,2.3,1.3,2.1,1.5,2,3.1,5.4,2.5.3.3,1.1-5.3,1.1-2.3.5.1,2.7-.4,1-.5,1.1-1,.6-1,2.3-4.9.8-2.6.4-2.8.1-3.3-.7-6.4.3-2.4,1.8-1.7-1.7-.8-.6-.6-1.4-2.7-.7.2.3-1.9,3.9-8.2,5.3,1.4,2.5,1.3,2.4,1.9,2.8,2.4,8.8,4.9,1.2,1.2,2.2,3.4.8,1.6.7.6,1.7.9.3,1.2-.3,1.3-1.6.3-.9,1.9-.9.8.6,2.7.5,1.1,2.3,2.9,1.1.9,4.4,1.9,18.6,2.1,13,4.6,1.2-.1,1-.5,2.7-2.1,6.8-2.9,2.1-2.2,2.9-7.8,1.9-1.3,3.1,3.7,5.3,2.8,1.5.3,2-.4,3.9-1.9,2-.2.8.8.2,2.6.4.8,1,.1,2-.7.9.2,1.4,1.9.8,1.8,1,1.3,2.2.2,2-2.1Z"/><path id="AUT2327" class="cls-1" d="M533.3,301.6l-1,2.8-1,3.6-.1,1.5,1.2,6.9,3.9,13,3.4,7.1,4.1,3.9,2.3,1.6,1.9.6,1.8-.7,1.9-1.4,2.1-1,3.7-.4,2-1.3,1.9-.6,1.8,1.2,2.1,4.3,2.9,4.5.7,1.8.9,3.7,1.1,1.8,4.3,5.5,3.9,2.8,1,1.7-.3,1.9-2.5,3.3-3.9,3.7-1.1,1.7-.2,2.5.3,3.8-.7,2.2-1.5,3.7-5.6,10.4-5,6.5-3.9-5.1-11.2-8.7-4.6-2.4-3.4-1.1-5.8-.5-13.1-2.8-2.9-.2-12-3.2-5.2-1.6-2.4.2-2,.5-3.3,3.2-3,2.3-6.9,3.4-5.1,1.1-9.8.6-3.9-.5-2.5-.6-2.2-1.2L446,380.8l-6.3-2-4.2-.5-8.1-2-6-3-5.1-3.3-1.7-.7-1.2-.1-1,.8-.5,1.7-.9,1.1-1.7,1.1-5.1-5-2.3-1.2-2.5-.6-3.5-.3-3.8-1.3-3.5-.1-4.5.9-3.1-.1-2.7.5-2.2,1-7.8,7.5-11.7,5.4-3.6,1.9.1-2.4L350,379l-6.2,1.2.1-.9-.4-7.2-.4-1.9-1.1-2.7-1-1-2.2-1.8-.8-1.2-.6-2-.3-2.1v-3.6l.3-2.8,1.8-7.6-.3-3.9,3.6-1.9,1.9-.4,4,.2,14.6-5.3,4.6-2.8,1.9-.3,1.6.3L374,333l1.8.5,2,.1,4.2-.6,2.5-.9,1.7-.9,1.6-1.6,1.3-2.1,1.2-3.6,1-1.7.7-1,2.3-.9,6.4-.6,1.5-.7,1.4-.8,1.1-1.1,1.1-1.2.9-1.4,2.7-6,1.4-2.3,2.6-3.3.9-1.5.9-2.2-.3-1.3-2.6-6.4-.5-2.3-.1-1.6.7-2.4-.4-.9-1.2-1.4-4.7-3.1-2.7-2.5-3.3-5.9,4.5-4.1,2.5-1.2,4.7-1.2h4.7l7.3,1.9,2.3-.3-1.4,3.4,2.1,2.6,3.4,2.2,2.6,2.5-3.6,1.8-1.6,4.5.7,4.8,3.2,2.6,2,.4,1.3.4,1.1.9,5.9,6.6,6.4,4.9,1.5.6,2.2-1,1.3-.1,1.3.7,1.5,1.3,1.4-.1,1-.8,3.7-4.4-.1-1.6-1-3.3-.1-1.2v-3.3l.3-.5,1.2-3.2-.1-.2-.1-4.4.4.2,2.1-2.8v-.5l1.6-3.9.3-.4.3-2.4.1-2.3-.4-2.5-1-2.8-2.6-4.4-1.6-2-1.6-1.2-2-.3-3.3,1.4-2,.4-7.3-1.4-2.1-2.2,3.3-5.2.5-3.7.7-1.6,8.5-13.6-.7-.6-2.8-4.2-4.4-10.3-2.2-2.2-1.1-.6-2.6-2.7-3.2-1.9-1-1.6-.8-2.3,2.7-1,6.1-1.8,1.6-1,1.3-3.8,1.6-1.3,2.5-.7,5.5-.3,3.3.4,3.2,1.9,3.9,4.1,1.2.8,5.2,1.8,5,.5,7.5-.9,8.9-4.1,4,2.9,2.5,1.5,1.1,1.4-.1,1.5-1.2,1.4-1.8.5-1.9-.2-3.6-1-.9.1-.7.6-.4.9-.5,1.7-.3,2.3-.3,5.5.1,2.6.4,2.5,1.7,7.2.5,1.7,1.2,1.6,2.1,1.4,23.6,5.3,3.1,2.8-1.6,2.1-2.1.4-5.2.2-.9.7-.2.9,1,2.1,2,1.4,2.7,1.2,3.3.4.9,1.8.7,1.7-4.8,14.8,2.2,3.8.3,1.7-.3,2-.8,1.5-2,3.4-.7,2.6.2,2.9,1.1,2.6,4.6,4.8,7.5,4.8Z"/><polygon id="Osttirol" class="cls-1" points="409.3 373.9 409.7 377.6 410.7 379.1 412.5 380.5 423.7 384.2 424.8 385.8 424.7 387.8 423.1 391.8 422.5 394.6 422.6 396.3 423 398.2 423.9 399.8 425.2 401.5 426.3 403.7 429 406.2 430.3 407.1 431.9 408.9 433 410.9 433.6 413.6 433.9 416.1 434.8 419.2 436.2 421.1 442.2 427.5 450 438.5 450.8 440 450.4 441.5 449.5 442 448.4 441.8 443.8 438.3 442.4 437.8 440.9 438 435.6 440.3 423.9 442.1 421.1 443.5 420.7 446.8 420.1 449.1 419.1 451.8 414.8 460.4 414.2 461.9 414 461.8 407.5 461.1 399.9 462.1 398 461.9 395.8 460.9 391.8 458.1 384.7 456.9 379.3 454.7 374.8 450.7 372.3 444.6 371.2 440.4 369 439 366.3 438.6 363.6 437.5 361.6 435.9 361.3 434.6 361.3 432.1 361.6 429.9 362.5 427.2 362.4 424.9 361.2 420.7 359.2 419.2 353.7 419 351.9 418.4 350.4 416.3 348.9 414.7 347.4 414 344.3 413.4 343 412.9 344.9 411 344.9 409.2 344 407.4 343.1 405.3 342.3 400.8 341.8 398.6 340.9 396.7 342.3 393.4 350.2 388.9 353 385.1 353 382.5 356.6 380.6 368.3 375.2 376.1 367.7 378.3 366.7 381 366.2 384.1 366.3 388.6 365.4 392.1 365.5 395.9 366.8 399.4 367.1 401.9 367.7 404.2 368.9 409.3 373.9 409.3 373.9"/><polygon id="Tirol" class="cls-1" points="400.1 271.4 403.4 277.3 406.1 279.8 410.8 282.9 412 284.3 412.4 285.2 411.7 287.6 411.8 289.2 412.3 291.5 414.9 297.9 415.2 299.2 414.3 301.4 413.4 302.9 410.8 306.2 409.4 308.5 406.7 314.5 405.8 315.9 404.7 317.1 403.6 318.2 402.2 319 400.7 319.7 394.3 320.3 392 321.2 391.3 322.2 390.3 323.9 389.1 327.5 387.8 329.6 386.2 331.2 384.5 332.1 382 333 377.8 333.6 375.8 333.5 374 333 371.1 331.3 369.5 331 367.6 331.3 363 334.1 348.4 339.4 344.4 339.2 342.5 339.6 338.9 341.5 339.2 345.4 337.4 353 337.1 355.8 337.1 359.4 337.4 361.5 338 363.5 338.8 364.7 341 366.5 342 367.5 343.1 370.2 343.5 372.1 343.9 379.3 343.8 380.2 341.6 380.7 328.3 387.6 319 388.1 313.2 390.1 307.6 393.1 303.1 396.7 297.2 397.6 295.7 398.6 293.2 400.7 291.7 401 289.2 400.1 285 396.9 282.5 396.7 280.5 396.7 273.6 395.3 270.4 395.6 266.6 396.7 265.4 397.4 264.1 397.6 262.9 397.4 261.8 396.7 260.4 395.1 259.5 394.6 257.2 394 255.9 394.3 254.8 395.2 253.8 396.7 249.3 401.1 245.3 400.8 241.2 398.9 236.6 397.8 227.4 399.4 218.3 402.3 216 403.7 207.5 412.2 206.4 414.5 205.1 421.3 202.6 427.2 202.6 429.9 202.4 430.9 201.9 431.5 200.4 432.1 199.9 432.7 196.9 437.7 195.1 439.6 193.2 439.9 191 439.1 186.5 438.7 184.2 439 179.8 440.5 178.5 440.6 177.2 440 175 438.1 173.8 437.5 172.5 437.5 170 438.2 168.7 438.1 164.9 436 163.4 435.5 160.7 436.4 159.3 436.3 158.5 434.6 159.1 433.7 162 431.3 162.6 430 161.3 428.1 151.3 422 149.3 421.5 147 421.8 133.7 425.4 128.3 424.8 124 421.4 123.7 417.3 125.3 410.8 124.6 407.6 123.5 406.2 119 402.6 116.3 398.2 114.9 396.7 114.2 396.3 112.8 396.3 109 398.4 105.7 402.2 103.4 406.6 103.3 410.2 100.1 410.4 97.5 409.7 95.4 410.1 93.4 413.5 92.8 415.9 92.7 417.5 92.4 419 91 420.9 85.3 423.8 81.9 424.8 81 424.8 80.9 424.2 78.5 417.9 75.6 413 75.3 411.2 75.7 409.5 77.4 407.4 79 406 80.4 404 81.2 401.6 81.6 398.3 81.5 396.2 81.1 393.5 81 391.2 81.2 388.2 82.7 380.5 84.1 376.9 89.2 369.2 91.1 364.4 91.4 359.1 91.3 357.2 89.7 348.5 87.5 343 96 341.9 98.8 340.8 104.7 337.2 107.2 334.9 109.6 331.7 112.5 325.8 113.3 324.6 114.6 323.7 117.4 322.7 118.5 322 120.7 319.1 122.6 315.2 123.8 310.8 123.8 306.7 123.2 304.3 122.5 302.5 121.4 301.3 119.6 300.3 120.9 292.6 121 290.8 120.2 288.6 119 286.5 118.9 284.8 120.8 284 123 283.6 124 283.2 124.5 283.6 125.1 285.4 124.9 286.1 124.3 287.1 123.8 288.3 124 290 124.7 290.9 125.8 291.6 127.8 292.6 133.4 293.4 134.9 293.2 136.6 291.8 139.2 288.1 141 286.8 144.2 286.9 161.5 293.4 162 294 163.1 296 164.2 296.3 168.1 295.8 173.3 293.4 175.2 292.9 177 293 178.4 293.8 181.4 296.1 180.3 297.4 176.1 300.3 177 301.8 183.7 304.9 190.2 312 190.6 312.9 190.7 314.2 190.4 315.5 189.7 316.4 191 319.1 192.8 320.1 206.5 320.3 209 319.5 217.6 313.6 220.9 312.7 223.7 313.9 223.4 319.1 226.5 319.5 229.4 318.2 231.2 316.2 233 313.8 235.5 311.5 237.9 310.7 243.6 310.5 245.7 309.6 246.9 307.7 246.4 306.3 244.9 305.3 243.3 304.9 249.5 297.8 252.5 297.1 255.7 297.5 258.6 298.4 264.8 297.4 267.6 296.3 270 293.6 270.7 291.8 271.7 287.3 272.6 285.3 276.2 282.1 276.7 281.5 279.1 281.6 284.8 282.8 295.5 282.8 302.8 284.3 304.2 283.9 305.5 280.6 307 279.7 318 277.5 348 278.8 349.1 278.6 352.8 273.7 353.3 272.5 353.4 270.7 353.2 265.5 352.8 264.4 351.1 262.9 350.1 261.6 349.7 260.6 349.5 259 351.5 258.1 354.7 255.5 355.8 254.8 357.7 253.9 357.3 256.8 356.8 258.4 356 259.5 355.6 260.9 356.3 263 357.6 264.2 359 264 361.9 262.5 364.8 262 372.3 263.7 374.6 263.3 379.7 261.3 381.8 261.7 382.5 262.9 383.8 267 384.5 268.6 385.6 269.9 389.5 273 391.3 273.9 394 274 396.8 273.5 398.8 272.5 400.1 271.4 400.1 271.4"/><path id="AUT2330" class="cls-1" d="M988.8,179.5l-1.7,1.7-2,.8-1.6-.3-2.5-1.5-.9.4-1.7,1.8-.5,2.9v1.4l.4,1.5-.1,1.6-1,1.8-1.5,1-2.1-1.1-4-3.1-2.1-1-2.7.4-3,1.4-5.3,3.9-5.5,2.6-1.5-.2-1.6.3-2.8,1.3-3.2,2.7-1.8,4.9-1.3,2.4-1.9,1.7-4.5,3.2-2.5,2.6-5.2,2.7-9.1-3.1-4.6.3-3.8,1.1-6.3,5-2.1,2.2-2,3.8-.2,7.6-.5,2.3-.8,1.7-1.6,1.9-1.5,1.2-4.5.6-.1,11.9,1,2.4,2,3.4,4.5,5.2,3.8,6-4.3,8.4-.8,1.3-1.3,2.3-.7,2.2-.4,4.3.4,2.8.7,2.3-.1,2.3-.2,2-6.8,7.3-2.2,1.7-3.2,1.8-3.4.6-7.5-.1-4.5-4-1.4-2.8-.8-2.1-.3-2.2-.4-1.4-.8-1.5-.6-.3-3.1,1.6-1.3.4H855l-1.1-.4-1.2-1.2-3.2-1.8-10.7-1.8-1.6-4.4-1.6-3.1-3.4-2.6h-3.1l-1.9-.7-.3-1.3.7-2.7.2-2.7-.5-1.7-.8-1.5-.6-.8-1-.6-1.7.3-4.4,2.5-1.4.1-1.3-.9-1-2.6-.4-2.2-.8-5.6-.6-1.4-.9-.9-1.7-.3-2.4.2-1.5-.3-2.5-1.3-1.8-1.3-1.6-2.2-2.7-2.9-8.8-.7-5.1-3.7-10.8-5.3-5.5-5.1-2.1-.9-2.6-.2-8,2h-.9l-5.4-.8-3.6,4.6-.8,1.5-1.2,1.4-1.4.9-5.1,1.1-6.6,2.6-4.1,1.2H725l-2.2-.4-2,.1-2.6.7-5.3,2.3-3.2,2-3.3.8-2.8-.4-3.9-3.3-1.2-1.3-.8-.4H684.1l-4.5-3.6,2.2-4.8.2-2.4.1-4.5,1.8-7.2,2.3-3.4.1-3.7-.9-1.4-1.4-1.7-2.8-2.2-2.8-1.5-4.1-1.3-6.9-3.4-21.1-16-2.4-2.9.2-.9,1-.3,1.2-.9,1.9-3.5.1-1.6.3-.9,1.5-1.8.7-1.2v-.7l-.7-1.9-.6-5.6.2-1.1.7-1.6.3-1.7.8-7.9.2-1.2.9-1.2,1.7-1.3,1.8-1.5,5.9.2,2.2.8,2,1.3,1.7,1.9,3.6,5.2,2.2,2.1,2.7.8,18.8-4.5,1.8-1.5,1.9-2.8,1.9-1.9,2.4-1.1,6.5-.3,1.4.4,1.6,1,2,2.3.1-4.4.9-16.9-1.5-9.8-.7-1.8-2.5-1.9-.7-6.3-3.2-1.2-3-4.2-.6-2v-1.7l.2-1.2.1-1.8.3-1,.5-.2,3,.3.5-1.2-.2-2-1.3-2.2-1.8-1.5-2.2-.8-4.7-.7-4.2-2.2-4.3-1.8L681.2,89l-2.4-2.3-.3-.6.6-.6.6-5.1V74.3l.4-5.3,2.5-4,6.9-6.1.7-3.8,1.3-2.3.5-2.5.8-1.8,1.9-.8,6.9.9,6.7,2.8,2.7-.2,1.5-3.5-.9-1.6-.8-2.9.2-1.4,1-2.5,2.7-12.4V21.4l-.5-6.1.1-5.7L716,5.4l-.1-2,.6-1,2.9-.4,7.3,2.5,10.2.8.9,2.9.6,2.7-.1,2.7-.8,2.8,2.6.1,9.9-2.7.7-.5,1.8-2.1.5-1.1.3-2.7.5-.8h1L756,8.4l.7.5h6.1l2.9.9L772,13l5.8,2,2.8,1.6,6.5,5.6,10.8,4.2L808,32.2l3,.7h3l2.2-.7,4.7-2.5,1.1-.3h4l.8.6.5,2.4.6,1,.9.4,2.5.2,1.5,1.1.9.4,1.1-.1-1.3,1.8,1.6-.4,1.5.1,1,.9.1,2.1,2.2-.6.7.8.2,2.4L854,52.1l6.9,3,12.1-.7,18.3,2.7,2.9-.5,1.7,1.4.7.2,2.1-.6,1.4-1.3,6.7-11.4,2.2-1.5,3.8.5,1.4-.1,2.3-1,1.2-.1,1.2.4,2.3,1.4,7.8,2.3,2.4.3,2.5,1,1,2.4.5,2.9,1,2.3,1.7,1.2,2.1.4,4.9-.2,2,.7,4.8,3.1,2.4.9,2.5-.3,5-1.8,2.2.2,3.1,4.3,1.8,13.2,4.5,5.2,1.2,9.3-1,3.5-2.1,2.3-2.2,1.7-.9,1.9-.7,2.6-3.5,5-1.3,2.6-.5,2.8-1.2,10.6-.9,2.7-.1,2.2.4,1.2,1.1.6,2.6.3,2.1,1.5,1.4,1.5.6,1.6-1.1,3,.9.8.9,2.1.6,2.1,2.2,1.2,1.4,1.3.8.3.6,1.5-.1,3.2,2.1,7.1.6,3.5v4.3l.9,3.1,3.3,3.6,1.8,1.1,2.1.3,1.4.9Zm-76.3-35.1-3.6-6.3-.7-.9-4.1-.4-.5,1.5-1,.9-2.3.6-4.6,2.3-8.8,5.7-.7,1.1-1.5,1.4-1.1.7-1.7.5-1.7.2-3.2-1.5-1,1-1.2,2-.4,1.5v1.7l1,1.8,1,1.1,1,2.5-1.2,5.6,1.1,1.9.8.9.5,1.3,1.6.8,8,.7,3.5-.6,3.4-.1,1.8,1.3,2.4,1.1,1.2.3,2.9.1,1.4-1,.7-.7.8-1.7,1.1-.9,1.9-.6,6.1-.3,9.1,1.7-2.8-6-.9-2.8.6-5.3,1.1-4.8-.5-1.2-1-1-.5-2.5-.4-1.5-1.4-1.5-.7-1.6-1.3-1.3-2.5.5-1.2,2.3-.5-.5Z"/><path id="AUT2331" class="cls-1" d="M912.5,144.4l.5.5,1.2-2.3,2.5-.5,1.3,1.3.7,1.6,1.4,1.5.4,1.5.5,2.5,1,1,.5,1.2-1.1,4.8-.6,5.3.9,2.8,2.8,6-9.1-1.7-6.1.3-1.9.6-1.1.9-.8,1.7-.7.7-1.4,1-2.9-.1-1.2-.3-2.4-1.1-1.8-1.3-3.4.1-3.5.6-8-.7-1.6-.8-.5-1.3-.8-.9-1.1-1.9,1.2-5.6-1-2.5-1-1.1-1-1.8v-1.7l.4-1.5,1.2-2,1-1,3.2,1.5,1.7-.2,1.7-.5,1.1-.7,1.5-1.4.7-1.1,8.8-5.7,4.6-2.3,2.3-.6,1-.9.5-1.5,4.1.4.7.9,3.6,6.3Z"/><polygon id="NBurg" class="cls-1" points="898.9 270.8 895.1 264.8 890.6 259.6 888.6 256.2 887.6 253.8 887.7 241.9 892.2 241.3 893.7 240.1 895.3 238.2 896.1 236.5 896.6 234.2 896.8 226.6 898.8 222.8 900.9 220.6 907.2 215.6 911 214.5 915.6 214.2 924.7 217.3 929.9 214.6 932.4 212 936.9 208.8 938.8 207.1 940.1 204.7 941.9 199.8 945.1 197.1 947.9 195.8 949.5 195.5 951 195.7 956.5 193.1 961.8 189.2 964.8 187.8 967.5 187.4 969.6 188.4 973.6 191.5 975.7 192.6 977.2 191.6 978.2 189.8 978.3 188.2 977.9 186.7 977.9 185.3 978.4 182.4 980.1 180.6 981 180.2 983.5 181.7 985.1 182 987.1 181.2 988.8 179.5 989.4 180.6 991.1 182.4 989.7 184.1 989.1 186.1 988.3 189.7 990.4 191.4 989.7 194.6 992.7 196.2 996.9 197.7 1000 200.5 991.8 207.4 993.2 209 993.1 210.2 992.5 211.4 992.1 213.1 990.6 214.3 990.3 214.8 990.4 215.7 991.8 216.3 992 216.7 991.5 220.2 990.7 222.7 989.4 224.7 987.3 226.4 982.8 227.4 981.1 228.3 981.2 230.4 982 231.3 984.7 232.6 985.8 233.3 987 237 987.9 238.2 985.9 240.4 986.1 243.8 987 247.7 987.2 254.1 987.9 256 989 257.5 990.5 258.5 987.8 259.7 978.2 261 967.9 263.6 962.9 262.7 961 257.6 959.3 259.1 956.7 263.2 955.2 264.6 954.1 264.9 946.7 263.7 945.3 262.8 943.9 261.3 942.8 259.3 942.4 257.3 941.7 255.5 940 254.3 929.5 250.2 924 249.6 919.2 251.7 918.5 253.6 918.7 256.2 918 257.9 916.9 258.9 911.6 261.7 910.1 263.1 909.2 263.6 908.6 263.5 907.2 262 906.2 262.9 904.3 266.2 903.1 267.6 903.406 267.779 898.9 270.8"/><polygon id="SBurg" class="cls-1" points="903.406 267.779 905.5 269 912.8 272 916.4 271.2 925 274.7 929.4 274 932.2 275.3 934.5 278.3 935.6 282.3 934.9 286 937.1 287.3 938.9 289.1 939.9 291.6 939.8 294.6 938.4 297 934.6 298.6 933.1 300.3 933.6 308.1 926.9 313.3 912.8 319.8 911.2 317.2 909.5 316 907.9 316.5 906.5 318.9 906.9 326.3 906.6 326.9 905.3 327.8 905.3 328.9 905.6 329.6 907.2 330.6 911.1 338.9 911.7 342.1 910.8 344.7 908.9 346.4 904.9 348.6 905.3 352 903.3 356.2 903.8 359.4 904.5 360.1 906.7 360.1 907.6 361.3 907.6 363 906.5 366.3 906.5 367.4 908.2 368.5 912.7 366.4 914.8 366.6 916.4 368.9 915.8 371.2 912.8 375.2 910 376.9 909.2 379.7 910.2 382.2 912.8 383.1 914.3 383.9 914.8 384.9 914.3 385.9 912.8 386.9 906.9 389.3 905.3 390.8 909.1 391.2 910.9 391.9 912.8 393.6 913.4 395.7 910.9 396.3 907.5 396.3 905.3 396.7 904.8 397.3 903.4 397.2 900.5 395 897.7 394.7 892.4 395.3 887.5 394.3 885.7 394.6 884.5 396.7 883.9 399.6 882.8 400.5 881.5 400.8 880.2 401.9 879.9 403.1 879.9 405.3 879 406.7 878.1 407.4 875.4 408.6 872.1 411 870.6 412.6 865.8 419.1 864.1 420.7 862 421.7 853.9 426.5 853.5 426.6 853.2 423.7 852.5 422.4 850.9 421.1 850.2 420.2 850.1 419 850.7 415.8 850.8 413.8 851.2 412 852.2 410.2 856.9 406.1 863.2 397.7 866.6 392.6 867.6 390.6 867.7 389.3 867.4 387.7 862.6 381.6 861.5 379.5 860.9 376.8 860.8 374.8 862.2 368.8 862.2 363.6 858.6 349.7 858.4 346.7 857.4 339.3 856.1 334 854.7 329.2 852.4 323.6 852.2 322 852.6 320.4 854.6 317.6 856 316.2 857.5 316.1 858.3 317.1 859.1 319.3 861.5 317.9 869.1 310 876.6 310.1 880 309.5 883.2 307.7 885.4 306 892.2 298.7 892.4 296.7 892.5 294.4 891.8 292.1 891.4 289.3 891.8 285 892.5 282.8 893.8 280.5 894.6 279.2 898.9 270.8 903.406 267.779"/></svg>