<?xml version="1.0" encoding="utf-8"?>
<!-- Generator: Adobe Illustrator 24.0.1, SVG Export Plug-In . SVG Version: 6.00 Build 0)  -->
<svg version="1.1" id="Vrstva_1" xmlns="http://www.w3.org/2000/svg" xmlns:xlink="http://www.w3.org/1999/xlink" x="0px" y="0px"
	 viewBox="0 0 1002 516" style="enable-background:new 0 0 1002 516;" xml:space="preserve">
<style type="text/css">
	.st0{fill:#FFFFFF;stroke:#20519D;stroke-width:4;stroke-linecap:round;stroke-linejoin:round;}
</style>
<title>osterreich2</title>
<path id="AUT2320" class="st0" d="M87.5,343l2.2,5.5l1.6,8.7l0.1,1.9l-0.3,5.3l-1.9,4.8l-5.1,7.7l-1.4,3.6l-1.5,7.7l-0.2,3l0.1,2.3
	l0.4,2.7l0.1,2.1l-0.4,3.3l-0.8,2.4l-1.4,2l-1.6,1.4l-1.7,2.1l-0.4,1.7l0.3,1.8l2.9,4.9l2.4,6.3l0.1,0.6l-1.8-0.1l-5.6-1.8l-3-1.7
	l-5-4.9l-14-4.5l-3.3-2.5l-1.6-2.4l-0.3-1.8l0.5-2l0.3-4.5l0.5-1.9v-1.1l-0.5-0.6l-0.8,0.1l-0.5-0.5l0.2-2.2l-24.7-7.8l-2.2-0.3
	l-6.9,0.8l-2.4-0.6l3.6-4.6l0.9-5L13,370l-3.1-4.4L6,363.3v-1.7l1.3-2.9l0.2-1.3l-1.2-2.7L5.1,353l-0.6-1.7l0.9-2.7l-2.2-2L2,344.8
	l4.2-7.1l4.5-5.4l0.5-1.4l0.6-3.4l0.7-1.7l5-6.4l1.3-3l0.1-8.2l-3.7-3.3l-4.9-2.2l-3.9-5.9l3.1,1.8l1.9,0.5h2l0.9-0.5l1.6-1.7l1-0.3
	l0.8,0.3l0.2,1.7l0.8,0.5l2.7,0.1l0.9-0.1l0.7-0.8l0.7-2.5l0.4-0.7l1.6-0.4l5.5,0.4l-1.6-3.6l-1.8-1.6l1.6-3.5l2.9-3.4l1.9-1
	l1.9-0.2l1.9,0.7l1.5,1.6l0.5,2.3l-0.3,2.4l0.5,2l2.7,1.4l1-0.1l1.6-1l0.7-0.2l3.9,1.5l3.9,0.3l2-0.4l1.6-1.3l0.3,3.2l1.4,1.9
	l1.6,1.6l1.2,2.6l0.3,2.3l1.4,0.9L65,303l1.1-1l1.5-0.7l6.5,9.4l1.1,2.3l-0.6,2l-3,2.4l1.5,1.6l0.3,2.1l0.1,2l0.7,1.9l1.3,1.2h0.9
	l1-0.8l1.7-0.8l0.6,0.1l1.4,0.8l1.2-0.4l1.6-1.7l5.7-1.1l2.4,1.3l-0.1,3.5l-2.3,7.2l0.3,2.4l-0.3,1.3l-0.6,0.6l-1.7,0.5l-0.6,0.4
	l-1.7,3.4l0.6,0.3L87.5,343L87.5,343z"/>
<path id="AUT2322" class="st0" d="M853.5,426.6l-0.3-2.9l-0.7-1.3l-1.6-1.3l-0.7-0.9l-0.1-1.2l0.6-3.2l0.1-2l0.4-1.8l1-1.8l4.7-4.1
	l6.3-8.4l3.4-5.1l1-2l0.1-1.3l-0.3-1.6l-4.8-6.1l-1.1-2.1l-0.6-2.7l-0.1-2l1.4-6v-5.2l-3.6-13.9l-0.2-3l-1-7.4l-1.3-5.3l-1.4-4.8
	l-2.3-5.6l-0.2-1.6l0.4-1.6l2-2.8l1.4-1.4l1.5-0.1l0.8,1l0.8,2.2l2.4-1.4l7.6-7.9l7.5,0.1l3.4-0.6l3.2-1.8l2.2-1.7l6.8-7.3l0.2-2
	l0.1-2.3l-0.7-2.3l-0.4-2.8l0.4-4.3l0.7-2.2l1.3-2.3l0.8-1.3l4.3-8.4l-3.8-6l-4.5-5.2l-2-3.4l-1-2.4l0.1-11.9l4.5-0.6l1.5-1.2
	l1.6-1.9l0.8-1.7l0.5-2.3l0.2-7.6l2-3.8l2.1-2.2l6.3-5l3.8-1.1l4.6-0.3l9.1,3.1l5.2-2.7l2.5-2.6l4.5-3.2l1.9-1.7l1.3-2.4l1.8-4.9
	l3.2-2.7l2.8-1.3l1.6-0.3l1.5,0.2l5.5-2.6l5.3-3.9l3-1.4l2.7-0.4l2.1,1l4,3.1l2.1,1.1l1.5-1l1-1.8l0.1-1.6l-0.4-1.5v-1.4l0.5-2.9
	l1.7-1.8l0.9-0.4l2.5,1.5l1.6,0.3l2-0.8l1.7-1.7l0.6,1.1l1.7,1.8l-1.4,1.7l-0.6,2l-0.8,3.6l2.1,1.7l-0.7,3.2l3,1.6l4.2,1.5l3.1,2.8
	l-8.2,6.9l1.4,1.6l-0.1,1.2l-0.6,1.2l-0.4,1.7l-1.5,1.2l-0.3,0.5l0.1,0.9l1.4,0.6l0.2,0.4l-0.5,3.5l-0.8,2.5l-1.3,2l-2.1,1.7l-4.5,1
	l-1.7,0.9l0.1,2.1l0.8,0.9l2.7,1.3l1.1,0.7l1.2,3.7l0.9,1.2l-2,2.2l0.2,3.4l0.9,3.9l0.2,6.4l0.7,1.9l1.1,1.5l1.5,1l-2.7,1.2
	l-9.6,1.3l-10.3,2.6l-5-0.9l-1.9-5.1l-1.7,1.5l-2.6,4.1l-1.5,1.4l-1.1,0.3l-7.4-1.2l-1.4-0.9l-1.4-1.5l-1.1-2l-0.4-2l-0.7-1.8
	l-1.7-1.2l-10.5-4.1l-5.5-0.6l-4.8,2.1l-0.7,1.9l0.2,2.6l-0.7,1.7l-1.1,1l-5.3,2.8l-1.5,1.4l-0.9,0.5l-0.6-0.1l-1.4-1.5l-1,0.9
	l-1.9,3.3l-1.2,1.4l2.4,1.4l7.3,3l3.6-0.8l8.6,3.5l4.4-0.7l2.8,1.3l2.3,3l1.1,4l-0.7,3.7l2.2,1.3l1.8,1.8l1,2.5l-0.1,3l-1.4,2.4
	l-3.8,1.6l-1.5,1.7l0.5,7.8l-6.7,5.2l-14.1,6.5l-1.6-2.6l-1.7-1.2l-1.6,0.5l-1.4,2.4l0.4,7.4l-0.3,0.6l-1.3,0.9v1.1l0.3,0.7l1.6,1
	l3.9,8.3l0.6,3.2l-0.9,2.6l-1.9,1.7l-4,2.2l0.4,3.4l-2,4.2l0.5,3.2l0.7,0.7h2.2l0.9,1.2v1.7l-1.1,3.3v1.1l1.7,1.1l4.5-2.1l2.1,0.2
	l1.6,2.3l-0.6,2.3l-3,4l-2.8,1.7l-0.8,2.8l1,2.5l2.6,0.9l1.5,0.8l0.5,1l-0.5,1l-1.5,1l-5.9,2.4l-1.6,1.5l3.8,0.4l1.8,0.7l1.9,1.7
	l0.6,2.1l-2.5,0.6h-3.4l-2.2,0.4l-0.5,0.6l-1.4-0.1l-2.9-2.2l-2.8-0.3l-5.3,0.6l-4.9-1l-1.8,0.3l-1.2,2.1l-0.6,2.9l-1.1,0.9
	l-1.3,0.3l-1.3,1.1l-0.3,1.2v2.2l-0.9,1.4l-0.9,0.7l-2.7,1.2l-3.3,2.4l-1.5,1.6l-4.8,6.5l-1.7,1.6l-2.1,1l-8.1,4.8L853.5,426.6
	L853.5,426.6z"/>
<path id="AUT2323" class="st0" d="M869.1,310l-7.6,7.9l-2.4,1.4l-0.8-2.2l-0.8-1l-1.5,0.1l-1.4,1.4l-2,2.8l-0.4,1.6l0.2,1.6l2.3,5.6
	l1.4,4.8l1.3,5.3l1,7.4l0.2,3l3.6,13.9v5.2l-1.4,6l0.1,2l0.6,2.7l1.1,2.1l4.8,6.1l0.3,1.6l-0.1,1.3l-1,2l-3.4,5.1l-6.3,8.4l-4.7,4.1
	l-1,1.8l-0.4,1.8l-0.1,2l-0.6,3.2l0.1,1.2l0.7,0.9l1.6,1.3l0.7,1.3l0.3,2.9l-5.4,1.4l-0.8,0.4l-1.2,1.4l0.7,0.8l0.1,1.4l-0.9,5.9
	l-0.2,3.4l0.1,3.3l1.5,4.7l2.8,1.8l1.4,2.9l0.3,4.4l-2.4-3.1l-1.5-1l-5.3-0.9l-8.8-4.5l-3.7-0.7l-3.6,0.3l-8.9,3.6l-3.5,0.2l-10-1.5
	l-2.1-1.3l-0.4,2.9v2.4l-0.8,1.7l-1.3,1l-1.7,0.5l-2-0.6l-2.8,0.1l-2.8,0.7l-2,1.5l-1.3,2.7l-0.4,2.2l-0.8,1.9l-2.4,1.9l-4,0.7
	l-2.9-1.8l-3-2.6l-3.8-1.5l-24,1.3l-13-1.4l-1.1-1.5l-8.2-9.4l-1.6-4.6l-0.3-6.3l-1.5-6.8l-1.9-4.6l-0.7-2.6l-0.2-1.7l0.9-3.4
	l0.8-1.7l0.8-2.3l0.3-5.8l-10.3-15.8l-5.2-6.4l-1.9-1.5l-1.3-0.9l-2-0.3l-14.5,3.4l-16.1,1.3l-3.6-1.5l-8.5,0.6L653,391l-13.3,4.7
	l-2.4-0.1l-1.1-0.2l-0.3-0.5l-1.4-1.1l-2.2-1.1l-9.3-2.9l-5.3-3.8l-3.4-1.5l-4.6-0.1l-3.9,0.7l-14.3,6.9l-2,1.5l-1.1,1.4l-1.1,2.3
	l-2,3.4l-4.9,2.3l-8.1,6.3l-2.3,0.7l-2.4,0.3l-1.2-0.5l-1.8-1.3l-5-4.2l5-6.5l5.6-10.4l1.5-3.7l0.7-2.2l-0.3-3.8l0.2-2.5l1.1-1.7
	l3.9-3.7l2.5-3.3l0.3-1.9l-1-1.7l-3.9-2.8l-4.3-5.5l-1.1-1.8l-0.9-3.7l-0.7-1.8l-2.9-4.5l-2.1-4.3l-1.8-1.2l-1.9,0.6l-2,1.3
	l-3.7,0.4l-2.1,1l-1.9,1.4l-1.8,0.7l-1.9-0.6l-2.3-1.6l-4.1-3.9l-3.4-7.1l-3.9-13l-1.2-6.9l0.1-1.5l1-3.6l1-2.8l12.1,2.3l1.3-0.6
	l1.6-0.4l0.4-0.7l3.3-2.9l0.9-1.5l0.5-2v-2.6l-0.6-3.2l-1.3-2.6l-1-1.6l-1.6-1.9l-1.5-1.9l-1-2l-0.5-2l-0.1-1.9l0.3-3.8l0.3-2.4
	l0.7-2.8l1.7-2.2l2.2-1.8l13.9-7l1.5-0.3l1.1,0.2l3.2,1.9l1.8,0.8l3.9,0.7l3.5,1.3l2,0.5l5.7-0.8l6,7l1.4,3.7l0.2,1.5l0.7,1.9
	l0.8-0.1l2.6-1.9l6.4-1.7l4.9-2.3l1.7-0.4l1.3,0.2l7.3,5.2l2.9,1.3l2.6,0.8l3.9-0.1l3.2-0.9l5.9-4.5l3.2-2l4.2-1.2l2.2-1.2l1.5-1.4
	l0.4-1.3l1.5-2l18.8-7.6l8.4-6.7l4.5,3.6h13.6l0.8,0.4l1.2,1.3l3.9,3.3l2.8,0.4l3.3-0.8l3.2-2l5.3-2.3l2.6-0.7l2-0.1l2.2,0.4h1.2
	l4.1-1.2l6.6-2.6l5.1-1.1l1.4-0.9l1.2-1.4l0.8-1.5l3.6-4.6l5.4,0.8h0.9l8-2l2.6,0.2l2.1,0.9l5.5,5.1l10.8,5.3l5.1,3.7l8.8,0.7
	l2.7,2.9l1.6,2.2l1.8,1.3l2.5,1.3l1.5,0.3l2.4-0.2l1.7,0.3l0.9,0.9l0.6,1.4l0.8,5.6l0.4,2.2l1,2.6l1.3,0.9l1.4-0.1l4.4-2.5l1.7-0.3
	l1,0.6l0.6,0.8l0.8,1.5l0.5,1.7l-0.2,2.7l-0.7,2.7l0.3,1.3l1.9,0.7h3.1l3.4,2.6l1.6,3.1l1.6,4.4l10.7,1.8l3.2,1.8l1.2,1.2l1.1,0.4
	h0.9l1.3-0.4l3.1-1.6l0.6,0.3l0.8,1.5l0.4,1.4l0.3,2.2l0.8,2.1l1.4,2.8L869.1,310L869.1,310z"/>
<path id="AUT2325" class="st0" d="M559.6,404.2l5,4.2l1.8,1.3l1.2,0.5l2.4-0.3l2.3-0.7l8.1-6.3l4.9-2.3l2-3.4l1.1-2.3l1.1-1.4l2-1.5
	l14.3-6.9l3.9-0.7l4.6,0.1l3.4,1.5l5.3,3.8l9.3,2.9l2.2,1.1l1.4,1.1l0.3,0.5l1.1,0.2l2.4,0.1L653,391l3.6,0.3l8.5-0.6l3.6,1.5
	l16.1-1.3l14.5-3.4l2,0.3l1.3,0.9l1.9,1.5l5.2,6.4l10.3,15.8l-0.3,5.8l-0.8,2.3l-0.8,1.7l-0.9,3.4l0.2,1.7l0.7,2.6l1.9,4.6l1.5,6.8
	l0.3,6.3l1.6,4.6l8.2,9.4l1.1,1.5l-5.7-0.6l-7.5,2.4l-4.9,7l-2.5-3.7l-1.9-0.3l-4.7,2.9l-2.7,0.4L701,471l-1.7,0.7l-2.2,3.2
	l-1.5,3.2l-1.9,6l-2.5,5.6l-0.7,0.6l-2.9,1.3l-3.3,0.6l-1.2-0.8l-2.2,1l-0.8,0.9l-0.6,1.3l-1.5,1.8l-1,2.4l-1.7-0.4l-0.6,0.2
	l-2.6,2.8l-1.4,0.8l-1.3,0.4l-2.9,0.3l-1.2,0.5l-2,2.8l-1.1,3.7L661,513l-2.3,1l-1.7-1.8l-1.5-3.3l-1.7-2.4l-4.6,1l-2.1-0.3
	l-4.1-1.9l-0.7-0.9l-1.1-1.9l-1.4-0.3l-4.4,0.9l-27.7-0.8l-1.7-0.4l-7.4-6.4l-1.9-1l-2.1-0.6l-2.3-0.1l-4.4,0.8l-2.2-0.2l-11.9-5.7
	l-4-0.7l-8.5,1.4l-1.8,0.1l-8.6-2.1l-2-0.2l-2,0.4l-2-0.2l-15.8-5.2l-5.6-0.2l-1-0.7l-1.8-2.1l-1-0.4l-7.9,0.6l-5.8-1l-13.3,2.9
	l-5.3-0.3l-2.7-1.1l-8.3-5.1l-10.8-2.5l-30.6-2.2l-7.4-4.9l-4.4-1.5l-1.1,0.1l-2.1,0.9h-1.2l-1.2-0.5l-2.4-1.8l-1-0.5l0.6-1.5
	l4.3-8.6l1-2.7l0.6-2.3l0.4-3.3l2.8-1.4l11.7-1.8l5.3-2.3l1.5-0.2l1.4,0.5l4.6,3.5l1.1,0.2l0.9-0.5l0.4-1.5l-0.8-1.5l-7.8-11l-6-6.4
	l-1.4-1.9l-0.9-3.1l-0.3-2.5l-0.6-2.7l-1.1-2l-1.6-1.8l-1.3-0.9l-2.7-2.5l-1.1-2.2l-1.3-1.7l-0.9-1.6l-0.4-1.9l-0.1-1.7l0.6-2.8
	l1.6-4l0.1-2l-1.1-1.6l-11.2-3.7l-1.8-1.4l-1-1.5l-0.4-3.7l1.7-1.1l0.9-1.1l0.5-1.7l1-0.8l1.2,0.1l1.7,0.7l5.1,3.3l6,3l8.1,2
	l4.2,0.5l6.3,2l10.4,6.8l2.2,1.2l2.5,0.6l3.9,0.5l9.8-0.6l5.1-1.1l6.9-3.4l3-2.3l3.3-3.2l2-0.5l2.4-0.2l5.2,1.6l12,3.2l2.9,0.2
	l13.1,2.8l5.8,0.5l3.4,1.1l4.6,2.4l11.2,8.7L559.6,404.2L559.6,404.2z"/>
<path id="AUT2326" class="st0" d="M678.5,86.1l0.3,0.6l2.4,2.3l8.2,1.9l4.3,1.8l4.2,2.2l4.7,0.7l2.2,0.8l1.8,1.5l1.3,2.2l0.2,2
	l-0.5,1.2l-3-0.3l-0.5,0.2l-0.3,1l-0.1,1.8l-0.2,1.2v1.7l0.6,2l3,4.2l3.2,1.2l0.7,6.3l2.5,1.9l0.7,1.8l1.5,9.8l-0.9,16.9l-0.1,4.4
	l-2-2.3l-1.6-1l-1.4-0.4l-6.5,0.3l-2.4,1.1l-1.9,1.9l-1.9,2.8l-1.8,1.5l-18.8,4.5l-2.7-0.8l-2.2-2.1l-3.6-5.2l-1.7-1.9l-2-1.3
	l-2.2-0.8l-5.9-0.2l-1.8,1.5l-1.7,1.3l-0.9,1.2l-0.2,1.2l-0.8,7.9l-0.3,1.7l-0.7,1.6l-0.2,1.1l0.6,5.6l0.7,1.9v0.7l-0.7,1.2
	l-1.5,1.8l-0.3,0.9l-0.1,1.6l-1.9,3.5l-1.2,0.9l-1,0.3l-0.2,0.9l2.4,2.9l21.1,16l6.9,3.4l4.1,1.3l2.8,1.5l2.8,2.2l1.4,1.7l0.9,1.4
	l-0.1,3.7l-2.3,3.4l-1.8,7.2l-0.1,4.5l-0.2,2.4l-2.2,4.8l-8.4,6.7l-18.8,7.6l-1.5,2l-0.4,1.3l-1.5,1.4l-2.2,1.2l-4.2,1.2l-3.2,2
	l-5.9,4.5l-3.2,0.9l-3.9,0.1l-2.6-0.8l-2.9-1.3l-7.3-5.2l-1.3-0.2l-1.7,0.4l-4.9,2.3l-6.4,1.7l-2.6,1.9l-0.8,0.1l-0.7-1.9l-0.2-1.5
	l-1.4-3.7l-6-7l-5.7,0.8l-2-0.5l-3.5-1.3l-3.9-0.7l-1.8-0.8l-3.2-1.9l-1.1-0.2l-1.5,0.3l-13.9,7l-2.2,1.8l-1.7,2.2l-0.7,2.8
	l-0.3,2.4l-0.3,3.8l0.1,1.9l0.5,2l1,2l1.5,1.9l1.6,1.9l1,1.6l1.3,2.6l0.6,3.2v2.6l-0.5,2l-0.9,1.5l-3.3,2.9l-0.4,0.7l-1.6,0.4
	l-1.3,0.6l-12.1-2.3l-7.5-4.8l-4.6-4.8l-1.1-2.6l-0.2-2.9l0.7-2.6l2-3.4l0.8-1.5l0.3-2l-0.3-1.7l-2.2-3.8l4.8-14.8l-0.7-1.7
	l-0.9-1.8l-3.3-0.4l-2.7-1.2l-2-1.4l-1-2.1l0.2-0.9l0.9-0.7l5.2-0.2l2.1-0.4l1.6-2.1l-3.1-2.8l-23.6-5.3l-2.1-1.4l-1.2-1.6l-0.5-1.7
	l-1.7-7.2l-0.4-2.5l-0.1-2.6l0.3-5.5l0.3-2.3l0.5-1.7l0.4-0.9l0.7-0.6l0.9-0.1l3.6,1l1.9,0.2l1.8-0.5l1.2-1.4l0.1-1.5l-1.1-1.4
	l-2.5-1.5l-4-2.9l-8.9,4.1l-7.5,0.9l-5-0.5l-5.2-1.8l-1.2-0.8l-3.9-4.1l-3.2-1.9l-3.3-0.4l-5.5,0.3l-2.5,0.7l-1.6,1.3l-1.3,3.8
	l-1.6,1L440,204l-2.7,1l-0.3-2.1l-2-4.4l-9.2-9.6l-1.2-2l-1.2-2.3l-0.6-2.6l0.2-2.7l0.8-1.4l1.7-0.2l0.8-0.4l1.9-2.9l0.5-0.7
	l5.2-3.6l1.7-2l2.4-3.8l1.2-1.3l2-1l7.2-1.5l-0.1-0.4l2-1.7l4.2-2.3l4.9-4.7l2.1-1.5l13.6-5.4l18-3.2l4.4-2.5l12.8-11.2l1.8-3.1
	l1-5.2l1.2-2.3l0.2-2.1l-0.2-5.6l0.2-1.8l0.7-1.8l1.7-3.8l0.4-1.9l-0.3-1.7l-1.2-1.9l-0.5-3.6l-0.5-1.6l0.7-1.4l1.2-1.1l4.3-1.6
	l4.3-0.6l13.6,3.8l2.3,1.3l2.1,1.5l2,3.1l5.4,2.5L551,99l1.1-5.3l1.1-2.3l0.5,0.1l2.7-0.4l1-0.5l1.1-1l0.6-1l2.3-4.9l0.8-2.6
	l0.4-2.8l0.1-3.3l-0.7-6.4l0.3-2.4l1.8-1.7l-1.7-0.8l-0.6-0.6l-1.4-2.7l-0.7,0.2l0.3-1.9l3.9-8.2l5.3,1.4l2.5,1.3l2.4,1.9l2.8,2.4
	l8.8,4.9l1.2,1.2l2.2,3.4l0.8,1.6l0.7,0.6l1.7,0.9l0.3,1.2l-0.3,1.3l-1.6,0.3l-0.9,1.9l-0.9,0.8l0.6,2.7l0.5,1.1l2.3,2.9l1.1,0.9
	l4.4,1.9l18.6,2.1l13,4.6l1.2-0.1l1-0.5l2.7-2.1l6.8-2.9l2.1-2.2l2.9-7.8l1.9-1.3l3.1,3.7l5.3,2.8l1.5,0.3l2-0.4l3.9-1.9l2-0.2
	l0.8,0.8l0.2,2.6l0.4,0.8l1,0.1l2-0.7l0.9,0.2l1.4,1.9l0.8,1.8l1,1.3l2.2,0.2L678.5,86.1L678.5,86.1z"/>
<path id="AUT2327" class="st0" d="M533.3,301.6l-1,2.8l-1,3.6l-0.1,1.5l1.2,6.9l3.9,13l3.4,7.1l4.1,3.9l2.3,1.6l1.9,0.6l1.8-0.7
	l1.9-1.4l2.1-1l3.7-0.4l2-1.3l1.9-0.6l1.8,1.2l2.1,4.3l2.9,4.5l0.7,1.8l0.9,3.7l1.1,1.8l4.3,5.5l3.9,2.8l1,1.7l-0.3,1.9l-2.5,3.3
	l-3.9,3.7l-1.1,1.7l-0.2,2.5l0.3,3.8l-0.7,2.2l-1.5,3.7l-5.6,10.4l-5,6.5l-3.9-5.1l-11.2-8.7l-4.6-2.4l-3.4-1.1l-5.8-0.5l-13.1-2.8
	l-2.9-0.2l-12-3.2l-5.2-1.6l-2.4,0.2l-2,0.5l-3.3,3.2l-3,2.3l-6.9,3.4l-5.1,1.1l-9.8,0.6l-3.9-0.5l-2.5-0.6l-2.2-1.2l-10.4-6.8
	l-6.3-2l-4.2-0.5l-8.1-2l-6-3l-5.1-3.3l-1.7-0.7l-1.2-0.1l-1,0.8l-0.5,1.7l-0.9,1.1l-1.7,1.1l-5.1-5l-2.3-1.2l-2.5-0.6l-3.5-0.3
	l-3.8-1.3l-3.5-0.1l-4.5,0.9l-3.1-0.1l-2.7,0.5l-2.2,1l-7.8,7.5l-11.7,5.4l-3.6,1.9l0.1-2.4L350,379l-6.2,1.2l0.1-0.9l-0.4-7.2
	l-0.4-1.9l-1.1-2.7l-1-1l-2.2-1.8l-0.8-1.2l-0.6-2l-0.3-2.1v-3.6l0.3-2.8l1.8-7.6l-0.3-3.9l3.6-1.9l1.9-0.4l4,0.2l14.6-5.3l4.6-2.8
	l1.9-0.3l1.6,0.3l2.9,1.7l1.8,0.5l2,0.1l4.2-0.6l2.5-0.9l1.7-0.9l1.6-1.6l1.3-2.1l1.2-3.6l1-1.7l0.7-1l2.3-0.9l6.4-0.6l1.5-0.7
	l1.4-0.8l1.1-1.1l1.1-1.2l0.9-1.4l2.7-6l1.4-2.3l2.6-3.3l0.9-1.5l0.9-2.2l-0.3-1.3l-2.6-6.4l-0.5-2.3l-0.1-1.6l0.7-2.4l-0.4-0.9
	l-1.2-1.4l-4.7-3.1l-2.7-2.5l-3.3-5.9l4.5-4.1l2.5-1.2l4.7-1.2h4.7l7.3,1.9l2.3-0.3l-1.4,3.4l2.1,2.6l3.4,2.2l2.6,2.5l-3.6,1.8
	l-1.6,4.5l0.7,4.8l3.2,2.6l2,0.4l1.3,0.4l1.1,0.9l5.9,6.6l6.4,4.9l1.5,0.6l2.2-1l1.3-0.1l1.3,0.7l1.5,1.3l1.4-0.1l1-0.8l3.7-4.4
	l-0.1-1.6l-1-3.3l-0.1-1.2v-3.3l0.3-0.5l1.2-3.2l-0.1-0.2l-0.1-4.4l0.4,0.2l2.1-2.8v-0.5l1.6-3.9l0.3-0.4l0.3-2.4l0.1-2.3l-0.4-2.5
	l-1-2.8l-2.6-4.4l-1.6-2l-1.6-1.2l-2-0.3l-3.3,1.4l-2,0.4l-7.3-1.4l-2.1-2.2l3.3-5.2l0.5-3.7l0.7-1.6l8.5-13.6l-0.7-0.6l-2.8-4.2
	l-4.4-10.3l-2.2-2.2l-1.1-0.6l-2.6-2.7l-3.2-1.9l-1-1.6l-0.8-2.3l2.7-1l6.1-1.8l1.6-1l1.3-3.8l1.6-1.3l2.5-0.7l5.5-0.3l3.3,0.4
	l3.2,1.9l3.9,4.1l1.2,0.8l5.2,1.8l5,0.5l7.5-0.9l8.9-4.1l4,2.9l2.5,1.5l1.1,1.4l-0.1,1.5l-1.2,1.4l-1.8,0.5l-1.9-0.2l-3.6-1
	l-0.9,0.1l-0.7,0.6l-0.4,0.9l-0.5,1.7l-0.3,2.3l-0.3,5.5l0.1,2.6l0.4,2.5l1.7,7.2l0.5,1.7l1.2,1.6l2.1,1.4l23.6,5.3l3.1,2.8
	l-1.6,2.1l-2.1,0.4l-5.2,0.2l-0.9,0.7l-0.2,0.9l1,2.1l2,1.4l2.7,1.2l3.3,0.4l0.9,1.8l0.7,1.7l-4.8,14.8l2.2,3.8l0.3,1.7l-0.3,2
	l-0.8,1.5l-2,3.4l-0.7,2.6l0.2,2.9l1.1,2.6l4.6,4.8L533.3,301.6L533.3,301.6z"/>
<path id="AUT2329" class="st0" d="M409.3,373.9l0.4,3.7l1,1.5l1.8,1.4l11.2,3.7l1.1,1.6l-0.1,2l-1.6,4l-0.6,2.8l0.1,1.7l0.4,1.9
	l0.9,1.6l1.3,1.7l1.1,2.2l2.7,2.5l1.3,0.9l1.6,1.8l1.1,2l0.6,2.7l0.3,2.5l0.9,3.1l1.4,1.9l6,6.4l7.8,11l0.8,1.5l-0.4,1.5l-0.9,0.5
	l-1.1-0.2l-4.6-3.5l-1.4-0.5l-1.5,0.2l-5.3,2.3l-11.7,1.8l-2.8,1.4l-0.4,3.3l-0.6,2.3l-1,2.7l-4.3,8.6l-0.6,1.5l-0.2-0.1l-6.5-0.7
	l-7.6,1l-1.9-0.2l-2.2-1l-4-2.8l-7.1-1.2l-5.4-2.2l-4.5-4l-2.5-6.1l-1.1-4.2L369,439l-2.7-0.4l-2.7-1.1l-2-1.6l-0.3-1.3v-2.5
	l0.3-2.2l0.9-2.7l-0.1-2.3l-1.2-4.2l-2-1.5l-5.5-0.2l-1.8-0.6l-1.5-2.1l-1.5-1.6l-1.5-0.7l-3.1-0.6l-1.3-0.5l1.9-1.9v-1.8l-0.9-1.8
	l-0.9-2.1l-0.8-4.5l-0.5-2.2l-0.9-1.9l1.4-3.3l7.9-4.5l2.8-3.8v-2.6l3.6-1.9l11.7-5.4l7.8-7.5l2.2-1l2.7-0.5l3.1,0.1l4.5-0.9
	l3.5,0.1l3.8,1.3l3.5,0.3l2.5,0.6l2.3,1.2L409.3,373.9L409.3,373.9z M400.1,271.4l3.3,5.9l2.7,2.5l4.7,3.1l1.2,1.4l0.4,0.9l-0.7,2.4
	l0.1,1.6l0.5,2.3l2.6,6.4l0.3,1.3l-0.9,2.2l-0.9,1.5l-2.6,3.3l-1.4,2.3l-2.7,6l-0.9,1.4l-1.1,1.2l-1.1,1.1l-1.4,0.8l-1.5,0.7
	l-6.4,0.6l-2.3,0.9l-0.7,1l-1,1.7l-1.2,3.6l-1.3,2.1l-1.6,1.6l-1.7,0.9L382,333l-4.2,0.6l-2-0.1L374,333l-2.9-1.7l-1.6-0.3l-1.9,0.3
	l-4.6,2.8l-14.6,5.3l-4-0.2l-1.9,0.4l-3.6,1.9l0.3,3.9l-1.8,7.6l-0.3,2.8v3.6l0.3,2.1l0.6,2l0.8,1.2l2.2,1.8l1,1l1.1,2.7l0.4,1.9
	l0.4,7.2l-0.1,0.9l-2.2,0.5l-13.3,6.9l-9.3,0.5l-5.8,2l-5.6,3l-4.5,3.6l-5.9,0.9l-1.5,1l-2.5,2.1l-1.5,0.3l-2.5-0.9l-4.2-3.2
	l-2.5-0.2h-2l-6.9-1.4l-3.2,0.3l-3.8,1.1l-1.2,0.7l-1.3,0.2l-1.2-0.2l-1.1-0.7l-1.4-1.6l-0.9-0.5l-2.3-0.6l-1.3,0.3l-1.1,0.9l-1,1.5
	l-4.5,4.4l-4-0.3l-4.1-1.9l-4.6-1.1l-9.2,1.6l-9.1,2.9l-2.3,1.4l-8.5,8.5l-1.1,2.3l-1.3,6.8l-2.5,5.9v2.7l-0.2,1l-0.5,0.6l-1.5,0.6
	l-0.5,0.6l-3,5l-1.8,1.9l-1.9,0.3l-2.2-0.8l-4.5-0.4l-2.3,0.3l-4.4,1.5l-1.3,0.1l-1.3-0.6l-2.2-1.9l-1.2-0.6h-1.3l-2.5,0.7l-1.3-0.1
	l-3.8-2.1l-1.5-0.5l-2.7,0.9l-1.4-0.1l-0.8-1.7l0.6-0.9l2.9-2.4l0.6-1.3l-1.3-1.9l-10-6.1l-2-0.5l-2.3,0.3l-13.3,3.6l-5.4-0.6
	l-4.3-3.4l-0.3-4.1l1.6-6.5l-0.7-3.2l-1.1-1.4l-4.5-3.6l-2.7-4.4l-1.4-1.5l-0.7-0.4h-1.4l-3.8,2.1l-3.3,3.8l-2.3,4.4l-0.1,3.6
	l-3.2,0.2l-2.6-0.7l-2.1,0.4l-2,3.4l-0.6,2.4l-0.1,1.6l-0.3,1.5l-1.4,1.9l-5.7,2.9l-3.4,1H81l-0.1-0.6l-2.4-6.3l-2.9-4.9l-0.3-1.8
	l0.4-1.7l1.7-2.1L79,406l1.4-2l0.8-2.4l0.4-3.3l-0.1-2.1l-0.4-2.7l-0.1-2.3l0.2-3l1.5-7.7l1.4-3.6l5.1-7.7l1.9-4.8l0.3-5.3l-0.1-1.9
	l-1.6-8.7l-2.2-5.5l8.5-1.1l2.8-1.1l5.9-3.6l2.5-2.3l2.4-3.2l2.9-5.9l0.8-1.2l1.3-0.9l2.8-1l1.1-0.7l2.2-2.9l1.9-3.9l1.2-4.4v-4.1
	l-0.6-2.4l-0.7-1.8l-1.1-1.2l-1.8-1l1.3-7.7l0.1-1.8l-0.8-2.2l-1.2-2.1l-0.1-1.7l1.9-0.8l2.2-0.4l1-0.4l0.5,0.4l0.6,1.8l-0.2,0.7
	l-0.6,1l-0.5,1.2l0.2,1.7l0.7,0.9l1.1,0.7l2,1l5.6,0.8l1.5-0.2l1.7-1.4l2.6-3.7l1.8-1.3l3.2,0.1l17.3,6.5l0.5,0.6l1.1,2l1.1,0.3
	l3.9-0.5l5.2-2.4l1.9-0.5l1.8,0.1l1.4,0.8l3,2.3l-1.1,1.3l-4.2,2.9l0.9,1.5l6.7,3.1l6.5,7.1l0.4,0.9l0.1,1.3l-0.3,1.3l-0.7,0.9
	l1.3,2.7l1.8,1l13.7,0.2l2.5-0.8l8.6-5.9l3.3-0.9l2.8,1.2l-0.3,5.2l3.1,0.4l2.9-1.3l1.8-2l1.8-2.4l2.5-2.3l2.4-0.8l5.7-0.2l2.1-0.9
	l1.2-1.9l-0.5-1.4l-1.5-1l-1.6-0.4l6.2-7.1l3-0.7l3.2,0.4l2.9,0.9l6.2-1l2.8-1.1l2.4-2.7l0.7-1.8l1-4.5l0.9-2l3.6-3.2l0.5-0.6
	l2.4,0.1l5.7,1.2h10.7l7.3,1.5l1.4-0.4l1.3-3.3l1.5-0.9l11-2.2l30,1.3l1.1-0.2l3.7-4.9l0.5-1.2l0.1-1.8l-0.2-5.2l-0.4-1.1l-1.7-1.5
	l-1-1.3l-0.4-1l-0.2-1.6l2-0.9l3.2-2.6l1.1-0.7l1.9-0.9l-0.4,2.9l-0.5,1.6l-0.8,1.1l-0.4,1.4l0.7,2.1l1.3,1.2l1.4-0.2l2.9-1.5
	l2.9-0.5l7.5,1.7l2.3-0.4l5.1-2l2.1,0.4l0.7,1.2l1.3,4.1l0.7,1.6l1.1,1.3l3.9,3.1l1.8,0.9l2.7,0.1l2.8-0.5l2-1L400.1,271.4
	L400.1,271.4z"/>
<path id="AUT2330" class="st0" d="M988.8,179.5l-1.7,1.7l-2,0.8l-1.6-0.3l-2.5-1.5l-0.9,0.4l-1.7,1.8l-0.5,2.9v1.4l0.4,1.5l-0.1,1.6
	l-1,1.8l-1.5,1l-2.1-1.1l-4-3.1l-2.1-1l-2.7,0.4l-3,1.4l-5.3,3.9l-5.5,2.6l-1.5-0.2l-1.6,0.3l-2.8,1.3l-3.2,2.7l-1.8,4.9l-1.3,2.4
	l-1.9,1.7l-4.5,3.2l-2.5,2.6l-5.2,2.7l-9.1-3.1l-4.6,0.3l-3.8,1.1l-6.3,5l-2.1,2.2l-2,3.8l-0.2,7.6l-0.5,2.3l-0.8,1.7l-1.6,1.9
	l-1.5,1.2l-4.5,0.6l-0.1,11.9l1,2.4l2,3.4l4.5,5.2l3.8,6l-4.3,8.4l-0.8,1.3l-1.3,2.3l-0.7,2.2l-0.4,4.3l0.4,2.8l0.7,2.3l-0.1,2.3
	l-0.2,2l-6.8,7.3l-2.2,1.7l-3.2,1.8l-3.4,0.6l-7.5-0.1l-4.5-4l-1.4-2.8l-0.8-2.1l-0.3-2.2l-0.4-1.4l-0.8-1.5l-0.6-0.3l-3.1,1.6
	l-1.3,0.4H855l-1.1-0.4l-1.2-1.2l-3.2-1.8l-10.7-1.8l-1.6-4.4l-1.6-3.1l-3.4-2.6h-3.1l-1.9-0.7l-0.3-1.3l0.7-2.7l0.2-2.7l-0.5-1.7
	l-0.8-1.5l-0.6-0.8l-1-0.6l-1.7,0.3l-4.4,2.5l-1.4,0.1l-1.3-0.9l-1-2.6l-0.4-2.2l-0.8-5.6l-0.6-1.4l-0.9-0.9l-1.7-0.3l-2.4,0.2
	l-1.5-0.3l-2.5-1.3l-1.8-1.3l-1.6-2.2l-2.7-2.9l-8.8-0.7l-5.1-3.7l-10.8-5.3l-5.5-5.1l-2.1-0.9l-2.6-0.2l-8,2h-0.9l-5.4-0.8
	l-3.6,4.6l-0.8,1.5l-1.2,1.4l-1.4,0.9l-5.1,1.1l-6.6,2.6l-4.1,1.2H725l-2.2-0.4l-2,0.1l-2.6,0.7l-5.3,2.3l-3.2,2l-3.3,0.8l-2.8-0.4
	l-3.9-3.3l-1.2-1.3l-0.8-0.4h-13.6l-4.5-3.6l2.2-4.8l0.2-2.4l0.1-4.5l1.8-7.2l2.3-3.4l0.1-3.7l-0.9-1.4l-1.4-1.7l-2.8-2.2l-2.8-1.5
	l-4.1-1.3l-6.9-3.4l-21.1-16l-2.4-2.9l0.2-0.9l1-0.3l1.2-0.9l1.9-3.5l0.1-1.6l0.3-0.9l1.5-1.8l0.7-1.2v-0.7l-0.7-1.9l-0.6-5.6
	l0.2-1.1l0.7-1.6l0.3-1.7l0.8-7.9l0.2-1.2l0.9-1.2l1.7-1.3l1.8-1.5l5.9,0.2l2.2,0.8l2,1.3l1.7,1.9l3.6,5.2l2.2,2.1l2.7,0.8l18.8-4.5
	l1.8-1.5l1.9-2.8l1.9-1.9l2.4-1.1l6.5-0.3l1.4,0.4l1.6,1l2,2.3l0.1-4.4l0.9-16.9l-1.5-9.8l-0.7-1.8l-2.5-1.9l-0.7-6.3l-3.2-1.2
	l-3-4.2l-0.6-2v-1.7l0.2-1.2l0.1-1.8l0.3-1l0.5-0.2l3,0.3l0.5-1.2l-0.2-2l-1.3-2.2l-1.8-1.5l-2.2-0.8l-4.7-0.7l-4.2-2.2l-4.3-1.8
	l-8.2-1.9l-2.4-2.3l-0.3-0.6l0.6-0.6l0.6-5.1v-6.1l0.4-5.3l2.5-4l6.9-6.1l0.7-3.8l1.3-2.3l0.5-2.5l0.8-1.8l1.9-0.8l6.9,0.9l6.7,2.8
	l2.7-0.2l1.5-3.5l-0.9-1.6l-0.8-2.9l0.2-1.4l1-2.5l2.7-12.4v-5.5l-0.5-6.1l0.1-5.7l1.7-4.2l-0.1-2l0.6-1l2.9-0.4l7.3,2.5l10.2,0.8
	l0.9,2.9l0.6,2.7l-0.1,2.7l-0.8,2.8l2.6,0.1l9.9-2.7l0.7-0.5l1.8-2.1l0.5-1.1l0.3-2.7l0.5-0.8h1l1.2,1.8l0.7,0.5h6.1l2.9,0.9L772,13
	l5.8,2l2.8,1.6l6.5,5.6l10.8,4.2l10.1,5.8l3,0.7h3l2.2-0.7l4.7-2.5l1.1-0.3h4l0.8,0.6l0.5,2.4l0.6,1l0.9,0.4l2.5,0.2l1.5,1.1
	l0.9,0.4l1.1-0.1l-1.3,1.8l1.6-0.4l1.5,0.1l1,0.9l0.1,2.1l2.2-0.6l0.7,0.8l0.2,2.4l13.2,9.6l6.9,3l12.1-0.7l18.3,2.7l2.9-0.5
	l1.7,1.4l0.7,0.2l2.1-0.6l1.4-1.3l6.7-11.4l2.2-1.5l3.8,0.5l1.4-0.1l2.3-1l1.2-0.1l1.2,0.4l2.3,1.4l7.8,2.3l2.4,0.3l2.5,1l1,2.4
	l0.5,2.9l1,2.3l1.7,1.2l2.1,0.4l4.9-0.2l2,0.7l4.8,3.1l2.4,0.9l2.5-0.3l5-1.8l2.2,0.2l3.1,4.3l1.8,13.2l4.5,5.2l1.2,9.3l-1,3.5
	l-2.1,2.3l-2.2,1.7l-0.9,1.9l-0.7,2.6l-3.5,5l-1.3,2.6l-0.5,2.8l-1.2,10.6l-0.9,2.7l-0.1,2.2l0.4,1.2l1.1,0.6l2.6,0.3l2.1,1.5
	l1.4,1.5l0.6,1.6l-1.1,3l0.9,0.8l0.9,2.1l0.6,2.1l2.2,1.2l1.4,1.3l0.8,0.3l0.6,1.5l-0.1,3.2l2.1,7.1l0.6,3.5v4.3l0.9,3.1l3.3,3.6
	l1.8,1.1l2.1,0.3l1.4,0.9L988.8,179.5L988.8,179.5z M912.5,144.4l-3.6-6.3l-0.7-0.9l-4.1-0.4l-0.5,1.5l-1,0.9l-2.3,0.6l-4.6,2.3
	l-8.8,5.7l-0.7,1.1l-1.5,1.4l-1.1,0.7l-1.7,0.5l-1.7,0.2l-3.2-1.5l-1,1l-1.2,2l-0.4,1.5v1.7l1,1.8l1,1.1l1,2.5l-1.2,5.6l1.1,1.9
	l0.8,0.9l0.5,1.3l1.6,0.8l8,0.7l3.5-0.6l3.4-0.1l1.8,1.3l2.4,1.1l1.2,0.3l2.9,0.1l1.4-1l0.7-0.7l0.8-1.7l1.1-0.9l1.9-0.6l6.1-0.3
	l9.1,1.7l-2.8-6l-0.9-2.8l0.6-5.3l1.1-4.8l-0.5-1.2l-1-1l-0.5-2.5l-0.4-1.5l-1.4-1.5l-0.7-1.6l-1.3-1.3l-2.5,0.5l-1.2,2.3
	L912.5,144.4L912.5,144.4z"/>
<path id="AUT2331" class="st0" d="M912.5,144.4l0.5,0.5l1.2-2.3l2.5-0.5l1.3,1.3l0.7,1.6l1.4,1.5l0.4,1.5l0.5,2.5l1,1l0.5,1.2
	l-1.1,4.8l-0.6,5.3l0.9,2.8l2.8,6l-9.1-1.7l-6.1,0.3l-1.9,0.6l-1.1,0.9l-0.8,1.7l-0.7,0.7l-1.4,1l-2.9-0.1l-1.2-0.3l-2.4-1.1
	l-1.8-1.3l-3.4,0.1l-3.5,0.6l-8-0.7l-1.6-0.8l-0.5-1.3l-0.8-0.9l-1.1-1.9l1.2-5.6l-1-2.5l-1-1.1l-1-1.8v-1.7l0.4-1.5l1.2-2l1-1
	l3.2,1.5l1.7-0.2l1.7-0.5l1.1-0.7l1.5-1.4l0.7-1.1l8.8-5.7l4.6-2.3l2.3-0.6l1-0.9l0.5-1.5l4.1,0.4l0.7,0.9L912.5,144.4L912.5,144.4z
	"/>
</svg>
