        <svg id="logo" viewBox="0 0 489 78" fill="none" xmlns="http://www.w3.org/2000/svg">
            <g filter="url(#filter0_d)">
            <path d="M57.344 4.096V54.496H52.232V14.176L32.432 48.088H29.912L10.112 14.392V54.496H5V4.096H9.392L31.28 41.464L52.952 4.096H57.344Z" stroke="white"/>
            <path d="M85.9336 16.336C90.8776 16.336 94.6696 17.584 97.3096 20.08C99.9496 22.528 101.27 26.176 101.27 31.024V54.496H96.3736V48.592C95.2216 50.56 93.5176 52.096 91.2616 53.2C89.0536 54.304 86.4136 54.856 83.3416 54.856C79.1176 54.856 75.7576 53.848 73.2616 51.832C70.7656 49.816 69.5176 47.152 69.5176 43.84C69.5176 40.624 70.6696 38.032 72.9736 36.064C75.3256 34.096 79.0456 33.112 84.1336 33.112H96.1576V30.808C96.1576 27.544 95.2456 25.072 93.4216 23.392C91.5976 21.664 88.9336 20.8 85.4296 20.8C83.0296 20.8 80.7256 21.208 78.5176 22.024C76.3096 22.792 74.4136 23.872 72.8296 25.264L70.5256 21.448C72.4456 19.816 74.7496 18.568 77.4376 17.704C80.1256 16.792 82.9576 16.336 85.9336 16.336ZM84.1336 50.824C87.0136 50.824 89.4856 50.176 91.5496 48.88C93.6136 47.536 95.1496 45.616 96.1576 43.12V36.928H84.2776C77.7976 36.928 74.5576 39.184 74.5576 43.696C74.5576 45.904 75.3976 47.656 77.0776 48.952C78.7576 50.2 81.1096 50.824 84.1336 50.824Z" stroke="white"/>
            <path d="M135.098 52.192C134.138 53.056 132.938 53.728 131.498 54.208C130.106 54.64 128.642 54.856 127.106 54.856C123.554 54.856 120.818 53.896 118.898 51.976C116.978 50.056 116.018 47.344 116.018 43.84V20.944H109.25V16.624H116.018V8.344H121.13V16.624H132.65V20.944H121.13V43.552C121.13 45.808 121.682 47.536 122.786 48.736C123.938 49.888 125.57 50.464 127.682 50.464C128.738 50.464 129.746 50.296 130.706 49.96C131.714 49.624 132.578 49.144 133.298 48.52L135.098 52.192Z" stroke="white"/>
            <path d="M176.044 37.144H144.364C144.652 41.08 146.164 44.272 148.9 46.72C151.636 49.12 155.092 50.32 159.268 50.32C161.62 50.32 163.78 49.912 165.748 49.096C167.716 48.232 169.42 46.984 170.86 45.352L173.74 48.664C172.06 50.68 169.948 52.216 167.404 53.272C164.908 54.328 162.148 54.856 159.124 54.856C155.236 54.856 151.78 54.04 148.756 52.408C145.78 50.728 143.452 48.424 141.772 45.496C140.092 42.568 139.252 39.256 139.252 35.56C139.252 31.864 140.044 28.552 141.628 25.624C143.26 22.696 145.468 20.416 148.252 18.784C151.084 17.152 154.252 16.336 157.756 16.336C161.26 16.336 164.404 17.152 167.188 18.784C169.972 20.416 172.156 22.696 173.74 25.624C175.324 28.504 176.116 31.816 176.116 35.56L176.044 37.144ZM157.756 20.728C154.108 20.728 151.036 21.904 148.54 24.256C146.092 26.56 144.7 29.584 144.364 33.328H171.22C170.884 29.584 169.468 26.56 166.972 24.256C164.524 21.904 161.452 20.728 157.756 20.728ZM169.636 1.792L160.348 10.72H155.164L145.876 1.792H150.628L157.756 7.696L164.884 1.792H169.636Z" stroke="white"/>
            <path d="M180.906 68.824C179.322 68.824 177.834 68.608 176.442 68.176C175.002 67.792 173.826 67.192 172.914 66.376L174.714 62.488C176.202 63.784 178.17 64.432 180.618 64.432C182.634 64.432 184.17 63.832 185.226 62.632C186.33 61.432 186.882 59.656 186.882 57.304V16.624H191.994V57.304C191.994 60.856 191.034 63.664 189.114 65.728C187.194 67.792 184.458 68.824 180.906 68.824ZM189.474 8.272C188.418 8.272 187.53 7.912 186.81 7.192C186.09 6.472 185.73 5.608 185.73 4.6C185.73 3.64 186.09 2.8 186.81 2.08C187.53 1.36 188.418 1 189.474 1C190.53 1 191.418 1.36 192.138 2.08C192.858 2.752 193.218 3.568 193.218 4.528C193.218 5.584 192.858 6.472 192.138 7.192C191.418 7.912 190.53 8.272 189.474 8.272Z" stroke="white"/>
            
            <path d="M245.067 4.096C251.499 4.096 256.539 5.632 260.187 8.704C263.835 11.776 265.659 16 265.659 21.376C265.659 26.752 263.835 30.976 260.187 34.048C256.539 37.072 251.499 38.584 245.067 38.584H231.531V54.496H226.203V4.096H245.067ZM244.923 33.904C249.915 33.904 253.731 32.824 256.371 30.664C259.011 28.456 260.331 25.36 260.331 21.376C260.331 17.296 259.011 14.176 256.371 12.016C253.731 9.808 249.915 8.704 244.923 8.704H231.531V33.904H244.923Z" stroke="white"/>
            <path d="M291.369 54.856C287.721 54.856 284.433 54.04 281.505 52.408C278.577 50.728 276.273 48.424 274.593 45.496C272.913 42.568 272.073 39.256 272.073 35.56C272.073 31.864 272.913 28.552 274.593 25.624C276.273 22.696 278.577 20.416 281.505 18.784C284.433 17.152 287.721 16.336 291.369 16.336C295.017 16.336 298.305 17.152 301.233 18.784C304.161 20.416 306.441 22.696 308.073 25.624C309.753 28.552 310.593 31.864 310.593 35.56C310.593 39.256 309.753 42.568 308.073 45.496C306.441 48.424 304.161 50.728 301.233 52.408C298.305 54.04 295.017 54.856 291.369 54.856ZM291.369 50.32C294.057 50.32 296.457 49.72 298.569 48.52C300.729 47.272 302.409 45.52 303.609 43.264C304.809 41.008 305.409 38.44 305.409 35.56C305.409 32.68 304.809 30.112 303.609 27.856C302.409 25.6 300.729 23.872 298.569 22.672C296.457 21.424 294.057 20.8 291.369 20.8C288.681 20.8 286.257 21.424 284.097 22.672C281.985 23.872 280.305 25.6 279.057 27.856C277.857 30.112 277.257 32.68 277.257 35.56C277.257 38.44 277.857 41.008 279.057 43.264C280.305 45.52 281.985 47.272 284.097 48.52C286.257 49.72 288.681 50.32 291.369 50.32Z" stroke="white"/>
            <path d="M331.181 54.856C328.109 54.856 325.157 54.424 322.325 53.56C319.541 52.648 317.357 51.52 315.773 50.176L318.077 46.144C319.661 47.392 321.653 48.424 324.053 49.24C326.453 50.008 328.949 50.392 331.541 50.392C334.997 50.392 337.541 49.864 339.173 48.808C340.853 47.704 341.693 46.168 341.693 44.2C341.693 42.808 341.237 41.728 340.325 40.96C339.413 40.144 338.261 39.544 336.869 39.16C335.477 38.728 333.629 38.32 331.325 37.936C328.253 37.36 325.781 36.784 323.909 36.208C322.037 35.584 320.429 34.552 319.085 33.112C317.789 31.672 317.141 29.68 317.141 27.136C317.141 23.968 318.461 21.376 321.101 19.36C323.741 17.344 327.413 16.336 332.117 16.336C334.565 16.336 337.013 16.672 339.461 17.344C341.909 17.968 343.925 18.808 345.509 19.864L343.277 23.968C340.157 21.808 336.437 20.728 332.117 20.728C328.853 20.728 326.381 21.304 324.701 22.456C323.069 23.608 322.253 25.12 322.253 26.992C322.253 28.432 322.709 29.584 323.621 30.448C324.581 31.312 325.757 31.96 327.149 32.392C328.541 32.776 330.461 33.184 332.909 33.616C335.933 34.192 338.357 34.768 340.181 35.344C342.005 35.92 343.565 36.904 344.861 38.296C346.157 39.688 346.805 41.608 346.805 44.056C346.805 47.368 345.413 50.008 342.629 51.976C339.893 53.896 336.077 54.856 331.181 54.856Z" stroke="white"/>
            <path d="M375.768 16.336C379.32 16.336 382.536 17.152 385.416 18.784C388.296 20.368 390.552 22.624 392.184 25.552C393.816 28.48 394.632 31.816 394.632 35.56C394.632 39.352 393.816 42.712 392.184 45.64C390.552 48.568 388.296 50.848 385.416 52.48C382.584 54.064 379.368 54.856 375.768 54.856C372.696 54.856 369.912 54.232 367.416 52.984C364.968 51.688 362.952 49.816 361.368 47.368V68.464H356.256V16.624H361.152V24.112C362.688 21.616 364.704 19.696 367.2 18.352C369.744 17.008 372.6 16.336 375.768 16.336ZM375.408 50.32C378.048 50.32 380.448 49.72 382.608 48.52C384.768 47.272 386.448 45.52 387.648 43.264C388.896 41.008 389.52 38.44 389.52 35.56C389.52 32.68 388.896 30.136 387.648 27.928C386.448 25.672 384.768 23.92 382.608 22.672C380.448 21.424 378.048 20.8 375.408 20.8C372.72 20.8 370.296 21.424 368.136 22.672C366.024 23.92 364.344 25.672 363.096 27.928C361.896 30.136 361.296 32.68 361.296 35.56C361.296 38.44 361.896 41.008 363.096 43.264C364.344 45.52 366.024 47.272 368.136 48.52C370.296 49.72 372.72 50.32 375.408 50.32Z" stroke="white"/>
            <path d="M405.053 16.624H410.165V54.496H405.053V16.624ZM412.829 1.792H419.669L408.005 10.72H402.965L412.829 1.792Z" stroke="white"/>
            <path d="M434.541 54.856C431.469 54.856 428.517 54.424 425.685 53.56C422.901 52.648 420.717 51.52 419.133 50.176L421.437 46.144C423.021 47.392 425.013 48.424 427.413 49.24C429.813 50.008 432.309 50.392 434.901 50.392C438.357 50.392 440.901 49.864 442.533 48.808C444.213 47.704 445.053 46.168 445.053 44.2C445.053 42.808 444.597 41.728 443.685 40.96C442.773 40.144 441.621 39.544 440.229 39.16C438.837 38.728 436.989 38.32 434.685 37.936C431.613 37.36 429.141 36.784 427.269 36.208C425.397 35.584 423.789 34.552 422.445 33.112C421.149 31.672 420.501 29.68 420.501 27.136C420.501 23.968 421.821 21.376 424.461 19.36C427.101 17.344 430.773 16.336 435.477 16.336C437.925 16.336 440.373 16.672 442.821 17.344C445.269 17.968 447.285 18.808 448.869 19.864L446.637 23.968C443.517 21.808 439.797 20.728 435.477 20.728C432.213 20.728 429.741 21.304 428.061 22.456C426.429 23.608 425.613 25.12 425.613 26.992C425.613 28.432 426.069 29.584 426.981 30.448C427.941 31.312 429.117 31.96 430.509 32.392C431.901 32.776 433.821 33.184 436.269 33.616C439.293 34.192 441.717 34.768 443.541 35.344C445.365 35.92 446.925 36.904 448.221 38.296C449.517 39.688 450.165 41.608 450.165 44.056C450.165 47.368 448.773 50.008 445.989 51.976C443.253 53.896 439.437 54.856 434.541 54.856ZM446.637 1.792L437.349 10.72H432.165L422.877 1.792H427.629L434.757 7.696L441.885 1.792H446.637Z" stroke="white"/>
            <path d="M459.615 16.624H464.727V54.496H459.615V16.624ZM462.207 8.344C461.151 8.344 460.263 7.984 459.543 7.264C458.823 6.544 458.463 5.68 458.463 4.672C458.463 3.712 458.823 2.872 459.543 2.152C460.263 1.432 461.151 1.072 462.207 1.072C463.263 1.072 464.151 1.432 464.871 2.152C465.591 2.824 465.951 3.64 465.951 4.6C465.951 5.656 465.591 6.544 464.871 7.264C464.151 7.984 463.263 8.344 462.207 8.344Z" stroke="white"/>
            <path d="M478.951 1.072H484.063V54.496H478.951V1.072Z" stroke="white"/>
            </g>
            <defs>
            <filter id="filter0_d" x="0.5" y="0.5" width="488.063" height="76.824" filterUnits="userSpaceOnUse" color-interpolation-filters="sRGB">
            <feFlood flood-opacity="0" result="BackgroundImageFix"/>
            <feColorMatrix in="SourceAlpha" type="matrix" values="0 0 0 0 0 0 0 0 0 0 0 0 0 0 0 0 0 0 127 0"/>
            <feOffset dy="4"/>
            <feGaussianBlur stdDeviation="2"/>
            <feColorMatrix type="matrix" values="0 0 0 0 0 0 0 0 0 0 0 0 0 0 0 0 0 0 0.25 0"/>
            <feBlend mode="normal" in2="BackgroundImageFix" result="effect1_dropShadow"/>
           <feBlend mode="normal" in="SourceGraphic" in2="effect1_dropShadow" result="shape"/>  
            </filter>
            </defs>
            </svg>