<svg id="Vrstva_1" data-name="Vrstva 1" xmlns="http://www.w3.org/2000/svg" viewBox="0 0 24 19.47"><defs><style>.cls-1{fill:#003cff;}.cls-2{fill:red;}.cls-3{fill:#e0e800;}.cls-4{fill:#0a7f00;}.cls-5{fill:#fff;}</style></defs><title>witter3</title><path class="cls-1" d="M3.21,12a4.92,4.92,0,0,0,4.6,3.42h0a22,22,0,0,0,6.71-4.5,31,31,0,0,1-9.09,1A5,5,0,0,1,3.21,12Z" transform="translate(-0.52 -0.13)"/><path class="cls-2" d="M14.52,10.88a22,22,0,0,1-6.73,4.51,9.89,9.89,0,0,1-7.27,2A13.92,13.92,0,0,0,8.07,19.6a13.92,13.92,0,0,0,14-13.82c0-.27,0-.55,0-.82h0L20.73,1.68a4.93,4.93,0,0,0-8.39,4.49" transform="translate(-0.52 -0.13)"/><path class="cls-3" d="M24.52,2.44a9.59,9.59,0,0,1-2.83.77A4.93,4.93,0,0,0,23.86.49a10.08,10.08,0,0,1-3.13,1.19h0a6.4,6.4,0,0,0,.19,1.85A10,10,0,0,0,22.07,5,9.87,9.87,0,0,0,24.52,2.44Z" transform="translate(-0.52 -0.13)"/><path class="cls-2" d="M13.75,7.24c-.44-.36-.93-.7-1.41-1.07A15.59,15.59,0,0,1,2.19,1,4.91,4.91,0,0,0,3.68,7.57C7.15,8.44,10.25,7.94,13.75,7.24Z" transform="translate(-0.52 -0.13)"/><path class="cls-4" d="M13.75,7.24c-3.5.7-6.6,1.2-10.07.33h0A4.77,4.77,0,0,1,1.52,7a4.94,4.94,0,0,0,3.91,4.89h0a31,31,0,0,0,9.09-1C15.65,9.19,14.9,8.17,13.75,7.24Z" transform="translate(-0.52 -0.13)"/><circle class="cls-5" cx="17.25" cy="2.55" r="1"/></svg>