<svg id="Vrstva_1" data-name="Vrstva 1" xmlns="http://www.w3.org/2000/svg" viewBox="0 0 24.87 19.75"><defs><style>.cls-1{fill:#003cff;}.cls-1,.cls-2,.cls-3,.cls-4,.cls-5{stroke:#000;stroke-miterlimit:10;stroke-width:0.25px;}.cls-2{fill:red;}.cls-3{fill:#e0e800;}.cls-4{fill:#0a7f00;}.cls-5{fill:#fff;}</style></defs><title>witter2</title><path class="cls-1" d="M2.69,14.08a4.92,4.92,0,0,0,4.6,3.42h0A22.06,22.06,0,0,0,14,13a31.11,31.11,0,0,1-9.09,1A5,5,0,0,1,2.69,14.08Z" transform="translate(0.52 -2.12)"/><path class="cls-2" d="M14,13a22.06,22.06,0,0,1-6.73,4.51,9.86,9.86,0,0,1-7.27,2,13.92,13.92,0,0,0,7.55,2.21,13.92,13.92,0,0,0,14-14.64h0L20.21,3.8a4.93,4.93,0,0,0-8.39,4.49" transform="translate(0.52 -2.12)"/><path class="cls-3" d="M24,4.56a9.87,9.87,0,0,1-2.83.77,4.94,4.94,0,0,0,2.17-2.72A10,10,0,0,1,20.21,3.8h0a6.46,6.46,0,0,0,.19,1.85A9.89,9.89,0,0,0,21.55,7.1,10,10,0,0,0,24,4.56Z" transform="translate(0.52 -2.12)"/><path class="cls-2" d="M13.23,9.36c-.44-.36-.93-.7-1.41-1.07A15.6,15.6,0,0,1,1.67,3.15,4.92,4.92,0,0,0,3.16,9.69C6.63,10.56,9.73,10.06,13.23,9.36Z" transform="translate(0.52 -2.12)"/><path class="cls-4" d="M13.23,9.36c-3.5.7-6.6,1.2-10.07.33l0,0A4.79,4.79,0,0,1,1,9.11,4.93,4.93,0,0,0,4.91,14h0A31.11,31.11,0,0,0,14,13C15.13,11.31,14.38,10.29,13.23,9.36Z" transform="translate(0.52 -2.12)"/><circle class="cls-5" cx="17.77" cy="2.68" r="1"/></svg>